<svg width="526" height="528" viewBox="0 0 526 528" fill="none" xmlns="http://www.w3.org/2000/svg">
<rect x="25" y="15" width="477" height="485" rx="65" fill="#645E5E"/>
<path d="M67.3989 0.877197C67.1483 1.44109 65.7699 1.94231 64.0155 2.19293C55.9957 3.19541 45.7204 7.07996 36.2595 12.7189C29.6808 16.6035 20.5959 24.9365 15.3329 31.8286C9.13011 39.9736 2.73934 54.5722 1.04767 64.5342C0.0451965 70.4864 -0.45604 450.048 0.546433 459.258C1.36094 466.463 3.99244 476.049 6.99986 482.44C9.94462 488.831 16.2727 497.979 21.3478 503.116C33.1895 515.334 44.2793 521.537 61.4467 525.797L67.2736 527.238H262.756C449.968 527.238 458.426 527.176 463.251 526.11C474.716 523.479 483.739 519.72 492.636 513.893C498.337 510.134 508.926 499.67 512.56 494.031C515.818 489.082 520.955 479.12 521.895 476.049C522.209 474.922 523.274 471.288 524.214 468.03L525.905 462.078V264.402V66.7271L524.527 61.0882C518.7 37.6554 503.788 19.047 482.36 8.45837C473.902 4.26052 472.398 3.75926 463.251 2.25555C460.431 1.75432 458.927 1.25313 458.99 0.751892C459.115 0.188001 416.072 0 263.445 0C94.2777 0 67.6495 0.125342 67.3989 0.877197ZM463.501 34.3347C479.353 39.911 490.631 52.5045 494.265 68.8574C495.518 74.4963 495.518 76.1253 495.518 213.903C495.518 290.592 495.267 353.434 495.016 353.622C494.453 353.936 489.19 349.926 480.982 342.909C477.786 340.152 472.586 335.829 469.453 333.26C466.321 330.691 458.677 324.363 452.537 319.225C446.334 314.025 440.758 309.388 440.068 308.762C424.655 295.98 419.079 291.469 418.327 291.218C417.701 290.968 411.122 296.043 398.967 306.193C388.817 314.651 379.105 322.734 377.351 324.175C373.529 327.245 344.959 351.116 334.245 360.139C330.11 363.647 326.225 366.529 325.598 366.529C324.847 366.529 311.188 354.938 309.434 352.808C309.246 352.557 306.301 349.863 302.855 346.856C299.409 343.786 294.772 339.525 292.517 337.458C289.384 334.45 277.542 323.736 267.706 314.839C264.698 312.145 247.656 296.607 242.706 292.033C240.952 290.467 236.754 286.582 233.308 283.512C229.862 280.379 226.729 277.56 226.354 277.247C225.978 276.871 223.033 274.239 219.775 271.294C216.579 268.35 212.194 264.402 210.126 262.46C206.116 258.763 185.503 240.03 181.305 236.333C179.927 235.08 176.982 232.386 174.726 230.318C172.471 228.188 168.398 224.491 165.641 221.985C162.884 219.542 159.25 216.221 157.496 214.655C155.804 213.088 154.113 211.772 153.8 211.772C153.549 211.772 152.421 212.712 151.293 213.84C147.158 218.226 142.271 223.552 138.073 228.376C132.434 234.829 132.936 234.265 129.302 238.15C126.232 241.471 121.72 246.546 110.505 259.077C105.806 264.277 69.0906 305.19 62.3239 312.646C61.2587 313.837 57.4368 318.097 53.8655 322.045C50.2942 325.992 45.3445 331.505 42.8383 334.262C40.3321 337.019 36.9487 340.841 35.2571 342.846C33.5654 344.788 31.999 346.229 31.7484 346.041C31.4351 345.916 31.2472 284.201 31.2472 208.89C31.2472 56.7651 30.9339 67.6669 35.445 58.582C38.1392 53.1311 43.4648 46.1138 47.0361 43.2317C54.492 37.1542 62.6998 33.4575 70.4063 32.5804C72.4739 32.3298 160.441 32.1418 265.889 32.2045L457.612 32.2671L463.501 34.3347ZM158.749 257.51C158.937 257.824 164.827 263.275 171.781 269.54C178.736 275.805 186.004 282.384 187.884 284.139C189.763 285.956 193.335 289.214 195.778 291.406C198.159 293.599 202.983 297.923 206.367 301.055C209.75 304.125 212.82 306.945 213.196 307.321C213.635 307.634 216.579 310.328 219.837 313.273C223.096 316.155 226.228 318.974 226.792 319.538C227.293 320.04 230.551 322.984 233.935 326.117C237.381 329.187 242.017 333.448 244.273 335.515C246.528 337.583 249.473 340.277 250.852 341.53C252.23 342.783 256.553 346.73 260.5 350.302C264.448 353.873 269.523 358.51 271.841 360.577C276.477 364.775 287.066 374.424 296.589 383.195C300.035 386.328 304.296 390.15 305.988 391.591C307.742 393.095 310.937 396.04 313.193 398.17C319.646 404.373 323.844 407.881 324.721 407.881C325.16 407.881 327.917 405.814 330.861 403.37C333.806 400.864 339.006 396.478 342.39 393.659C345.836 390.839 364.006 375.677 382.865 359.951C401.724 344.287 417.45 331.443 417.889 331.443C418.64 331.443 423.903 335.578 432.612 343.034C434.993 345.101 441.447 350.427 446.96 354.938C452.411 359.387 459.053 364.9 461.684 367.156C464.378 369.411 469.453 373.609 472.962 376.554C478.789 381.378 481.608 383.759 492.322 392.782L495.58 395.538L495.33 426.302C495.079 460.762 495.016 461.012 490.443 470.223C489.064 472.979 486.558 476.989 484.804 479.182C481.859 482.816 475.719 488.33 473.589 489.144C473.087 489.332 472.21 489.833 471.709 490.272C471.208 490.648 468.952 491.776 466.759 492.716C457.862 496.475 470.644 496.224 262.443 496.224C73.6017 496.224 71.5967 496.224 66.647 494.971C49.6676 490.648 37.262 478.618 32.5629 461.702C31.3098 457.19 31.2472 455.624 31.2472 425.174V393.408L34.5052 389.837C42.1491 381.629 43.7781 379.875 46.2843 376.867C47.788 375.113 51.5473 370.915 54.7426 367.469C57.938 364.023 61.76 359.763 63.201 358.071C64.6421 356.317 67.4615 353.247 69.4038 351.116C71.3461 349.049 74.9174 345.101 77.2983 342.407C81.3082 337.833 87.6363 330.816 89.2027 329.187C89.5159 328.811 91.8342 326.242 94.2777 323.548C137.384 275.492 154.802 256.32 155.429 256.069C156.306 255.756 158.185 256.57 158.749 257.51Z" fill="white"/>
<path d="M359.557 79.258C352.79 80.1978 344.833 82.4534 341.011 84.4583C340.322 84.7716 338.693 85.5861 337.315 86.2127C322.904 92.9794 309.433 106.575 301.978 121.863C296.464 133.141 294.396 142.476 294.396 155.697C294.396 165.659 295.023 170.17 297.968 179.819C302.604 194.918 314.822 211.083 328.606 220.231C351.224 235.268 381.424 237.21 405.295 225.306C420.833 217.474 433.615 204.692 441.071 189.467C444.454 182.575 445.457 179.693 447.274 171.548C449.028 163.842 449.028 147.927 447.336 139.97C444.705 127.815 439.066 116.036 431.297 106.513C427.475 101.814 415.257 90.8491 413.816 90.8491C413.628 90.8491 412.438 90.0972 411.122 89.2201C404.919 85.0222 392.701 80.5737 383.366 79.1953C376.286 78.1929 366.888 78.1929 359.557 79.258ZM383.303 110.961C398.215 115.096 410.057 125.873 414.944 139.72C423.841 164.782 410.871 191.347 385.621 199.68C379.795 201.622 378.667 201.81 371.462 201.81C363.066 201.81 358.555 200.871 351.412 197.487C341.45 192.851 332.24 182.889 328.105 172.175C326.601 168.29 325.097 160.208 325.097 155.697C325.097 151.687 326.601 143.354 327.917 139.782C330.172 133.58 334.057 127.753 339.445 122.427C344.207 117.665 349.846 114.345 357.302 111.713C362.502 109.896 363.692 109.708 370.772 109.708C376.912 109.645 379.607 109.959 383.303 110.961Z" fill="white"/>
</svg>
