<svg width="44" height="57" viewBox="0 0 44 57" fill="none" xmlns="http://www.w3.org/2000/svg">
<circle cx="22" cy="22" r="21" stroke="white" stroke-width="2"/>
<path d="M11.2311 14.0806C11.1156 14.1245 10.9956 14.1815 10.9689 14.2078C10.9378 14.2385 10.8933 14.2605 10.8667 14.2605C10.7911 14.2605 10.3378 14.7387 10.24 14.9185C10.1956 15.0019 10.1244 15.1818 10.08 15.3134C10.0089 15.5371 10 15.8837 10 20.3192V25.0837L10.1289 25.2592C10.2489 25.4215 10.52 25.5794 10.68 25.5794C10.7333 25.5794 11.2622 25.3294 11.4222 25.2284C11.5333 25.1583 12.1511 24.8073 12.2222 24.7766C12.2578 24.759 12.3511 24.7064 12.4222 24.6581C12.4978 24.6142 12.6578 24.5265 12.7867 24.4651C13.0089 24.3554 13.0489 24.351 13.8311 24.351C14.4089 24.351 14.6667 24.3686 14.7022 24.4037C14.7422 24.4431 14.7556 25.1407 14.76 27.2641C14.76 28.8128 14.7778 30.1728 14.8 30.2957C14.9467 31.1643 15.6978 31.9496 16.6 32.1778C16.7156 32.2041 19.1244 32.2304 23.4444 32.2436L30.1111 32.2699L30.4444 32.4673C30.6267 32.5814 30.8089 32.6823 30.8444 32.6998C30.88 32.7174 30.9822 32.7744 31.0667 32.8227C31.1511 32.8753 31.3111 32.9631 31.4222 33.0245C31.5333 33.0815 31.6844 33.1693 31.7556 33.2131C31.8311 33.257 31.9911 33.3491 32.1111 33.4149C32.5022 33.6255 32.5511 33.6562 32.6889 33.7396C33.1467 34.0204 33.4133 34.0686 33.6711 33.9107C33.7511 33.8624 33.8578 33.7571 33.9067 33.6782C34 33.5334 34 33.5115 34 26.628C34 19.9594 33.9956 19.7137 33.9156 19.4593C33.7111 18.8319 33.4711 18.4941 32.9778 18.1387C32.7244 17.9589 32.6044 17.8975 32.2667 17.779C32.0889 17.7132 31.5822 17.7044 27.8444 17.6825L23.6222 17.6605L23.5956 16.5199C23.5689 15.3046 23.5556 15.2125 23.3156 14.8396C23.1911 14.6422 22.8578 14.3087 22.7333 14.2561C22.6844 14.2341 22.6133 14.199 22.5778 14.1771C22.2533 13.9885 22.4933 13.9972 16.8089 14.0016C11.8133 14.006 11.4311 14.0104 11.2311 14.0806ZM22.1111 15.4757L22.2667 15.6337L22.2578 16.6471L22.2444 17.6605L19.4444 17.6825C17.2178 17.7 16.6133 17.7176 16.4889 17.7658C15.8889 17.9984 15.5689 18.2177 15.2711 18.5994C15.16 18.7442 15.0667 18.8758 15.0667 18.8977C15.0667 18.9197 15.0444 18.9592 15.0178 18.9855C14.9867 19.0162 14.9244 19.1434 14.8756 19.2706C14.7911 19.4856 14.7822 19.6172 14.7644 21.2229C14.7556 22.4865 14.7333 22.9515 14.6978 22.9866C14.6667 23.0085 14.2044 23.0349 13.6 23.0436L12.5556 23.0568L12.3333 23.1928C12.2133 23.263 12.08 23.3376 12.0444 23.3551C12.0089 23.3727 11.92 23.4253 11.8444 23.4736C11.7733 23.5218 11.68 23.5745 11.6444 23.5876C11.6089 23.6052 11.5422 23.6491 11.5022 23.6798C11.4622 23.7149 11.4044 23.7324 11.3822 23.7149C11.3467 23.6973 11.3333 22.4557 11.3333 19.6567V15.6249L11.4889 15.4669L11.6489 15.3134H16.8H21.9511L22.1111 15.4757ZM32.04 19.0864C32.2756 19.2048 32.4711 19.4066 32.5778 19.6436C32.6667 19.841 32.6667 19.9156 32.6667 26.0006C32.6667 29.9491 32.6533 32.1602 32.6222 32.1602C32.5778 32.1602 32.3244 32.0286 32.1111 31.8926C32.04 31.8487 31.9467 31.7961 31.9111 31.7785C31.8756 31.761 31.7067 31.6688 31.5333 31.5679C31.3644 31.4714 31.1911 31.3749 31.1556 31.3574C31.12 31.3398 31.0311 31.2872 30.9556 31.2433C30.8844 31.195 30.7422 31.1117 30.6444 31.0546L30.4667 30.9537L23.6889 30.9318C19.8933 30.9186 16.8622 30.8923 16.8 30.8704C16.4489 30.7431 16.2178 30.4975 16.0933 30.1026C16.0178 29.8701 16.0267 20.0033 16.1022 19.7576C16.1733 19.5251 16.44 19.2004 16.6578 19.0864C16.8178 19.003 16.9689 19.003 24.3467 18.9986C31.7333 18.9986 31.8711 18.9986 32.04 19.0864Z" fill="white"/>
<path d="M15.0188 54.0879C14.3216 54.0879 13.7811 53.874 13.3973 53.4463C13.0164 53.0156 12.826 52.4077 12.826 51.6226C12.826 50.8169 13.0193 50.1943 13.4061 49.7549C13.7957 49.3154 14.3494 49.0957 15.0672 49.0957C15.2986 49.0957 15.5301 49.1206 15.7615 49.1704C15.993 49.2202 16.1746 49.2788 16.3064 49.3462L16.0823 49.9658C15.9212 49.9014 15.7454 49.8486 15.555 49.8076C15.3646 49.7637 15.1961 49.7417 15.0496 49.7417C14.0711 49.7417 13.5818 50.3657 13.5818 51.6138C13.5818 52.2056 13.7005 52.6597 13.9378 52.9761C14.178 53.2925 14.5325 53.4507 15.0013 53.4507C15.4026 53.4507 15.8143 53.3643 16.2361 53.1914V53.8374C15.9139 54.0044 15.5081 54.0879 15.0188 54.0879ZM21.129 54V50.8843C21.129 50.4917 21.0396 50.1987 20.8609 50.0054C20.6822 49.812 20.4024 49.7153 20.0216 49.7153C19.5147 49.7153 19.1441 49.853 18.9098 50.1284C18.6783 50.4038 18.5626 50.855 18.5626 51.4819V54H17.8331V47.1621H18.5626V49.2319C18.5626 49.481 18.5509 49.6875 18.5274 49.8516H18.5714C18.7149 49.6201 18.9186 49.4385 19.1822 49.3066C19.4488 49.1719 19.7521 49.1045 20.0919 49.1045C20.6808 49.1045 21.1217 49.2451 21.4146 49.5264C21.7105 49.8047 21.8585 50.2485 21.8585 50.8579V54H21.129ZM26.7733 54L26.6283 53.3145H26.5932C26.3529 53.6162 26.1127 53.8213 25.8725 53.9297C25.6352 54.0352 25.3378 54.0879 24.9804 54.0879C24.5028 54.0879 24.1278 53.9648 23.8554 53.7188C23.5858 53.4727 23.4511 53.1226 23.4511 52.6685C23.4511 51.6958 24.2289 51.186 25.7846 51.1392L26.602 51.1128V50.814C26.602 50.436 26.5199 50.1577 26.3559 49.979C26.1947 49.7974 25.9354 49.7065 25.578 49.7065C25.1767 49.7065 24.7226 49.8296 24.2157 50.0757L23.9916 49.5176C24.2289 49.3887 24.4882 49.2876 24.7694 49.2144C25.0536 49.1411 25.3378 49.1045 25.622 49.1045C26.1962 49.1045 26.621 49.2319 26.8964 49.4868C27.1747 49.7417 27.3139 50.1504 27.3139 50.7129V54H26.7733ZM25.1254 53.4858C25.5795 53.4858 25.9354 53.3613 26.1933 53.1123C26.454 52.8633 26.5844 52.5146 26.5844 52.0664V51.6313L25.8549 51.6621C25.2748 51.6826 24.8559 51.7734 24.598 51.9346C24.3432 52.0928 24.2157 52.3403 24.2157 52.6772C24.2157 52.9409 24.2948 53.1416 24.453 53.2793C24.6142 53.417 24.8383 53.4858 25.1254 53.4858ZM30.8269 53.4858C30.9558 53.4858 31.0803 53.4771 31.2004 53.4595C31.3205 53.439 31.4157 53.4185 31.486 53.3979V53.9561C31.4069 53.9941 31.2897 54.0249 31.1345 54.0483C30.9821 54.0747 30.8444 54.0879 30.7214 54.0879C29.7897 54.0879 29.3239 53.5972 29.3239 52.6157V49.7505H28.634V49.3989L29.3239 49.0957L29.6315 48.0674H30.0534V49.1836H31.4509V49.7505H30.0534V52.585C30.0534 52.875 30.1223 53.0977 30.26 53.2529C30.3977 53.4082 30.5866 53.4858 30.8269 53.4858Z" fill="white"/>
</svg>
