<svg width="527" height="521" viewBox="0 0 527 521" fill="none" xmlns="http://www.w3.org/2000/svg">
<rect x="25" y="25" width="477" height="485" rx="65" fill="#645E5E"/>
<path d="M244.321 75.0981C244.034 75.7445 242.459 76.319 240.453 76.6063C238.591 76.8217 235.941 77.5399 234.652 78.1145C233.363 78.6172 231.788 79.1199 231.215 79.1199C230.212 79.1199 217.321 85.2246 214.098 87.2355C200.418 95.7101 188.315 110.218 182.8 124.725C178.718 135.498 179.004 129.25 179.004 204.085C179.004 267.86 179.076 272.887 180.293 275.473C180.938 276.981 181.511 278.848 181.511 279.638C181.511 280.428 181.941 281.937 182.514 282.942C183.015 284.019 184.519 286.964 185.808 289.549C190.893 299.748 197.983 308.294 207.58 315.62C214.456 320.934 214.814 321.15 221.26 324.238C239.308 333 253.846 334.867 276.191 331.276C290.372 328.978 306.271 320.36 318.017 308.653C325.967 300.61 330.264 294.146 334.919 283.086C338.858 273.893 338.643 278.058 338.93 207.819C339.145 132.051 339.288 133.415 332.627 119.339C331.768 117.543 330.479 115.101 329.691 113.952C328.975 112.731 328.115 111.295 327.829 110.72C327.614 110.146 325.394 107.201 322.887 104.257C318.518 98.942 314.293 94.9919 307.274 89.6773C303.407 86.8046 288.367 79.1199 286.576 79.1199C285.932 79.1199 284.642 78.7609 283.711 78.3299C282.78 77.899 280.13 77.1808 277.767 76.6781C275.189 76.1754 273.613 75.529 273.756 74.9545C273.971 73.5899 244.822 73.7335 244.321 75.0981ZM274.616 97.5774C281.061 99.3729 287.364 101.958 291.446 104.472C298.608 108.853 308.85 118.908 311.5 124.079C312.216 125.659 313.218 127.31 313.577 127.885C314.651 129.321 316.083 133.415 317.372 138.73C318.375 142.823 318.518 151.226 318.518 203.726C318.518 265.849 318.447 267.573 315.653 274.827C313.004 281.721 308.42 288.831 303.335 293.93C300.613 296.588 292.879 302.62 291.088 303.41C290.515 303.698 289.513 304.2 288.94 304.56C287.937 305.134 286.361 305.852 280.345 308.438C272.252 311.885 253.417 313.106 245.18 310.736C233.148 307.217 229.639 305.709 221.976 300.322C215.315 295.726 207.222 286.389 204.143 279.854C203.426 278.274 202.567 276.407 202.209 275.76C201.922 275.114 201.063 272.385 200.418 269.656C199.344 265.275 199.201 258.595 199.273 204.085C199.273 141.962 199.487 137.652 202.137 132.553C202.495 131.835 203.498 129.752 204.357 127.957C209.514 117.112 219.469 107.488 230.928 102.102C239.379 98.152 242.745 97.1465 250.265 96.3565C257.57 95.6383 269.817 96.2129 274.616 97.5774Z" fill="white"/>
<path d="M144.877 252.241C140.07 255.042 138.492 258.776 139.138 266.387C139.783 274.07 140.859 281.681 141.648 284.338C142.007 285.487 142.868 288.575 143.514 291.16C145.881 299.776 151.477 311.48 157.431 320.384C170.344 339.413 189.928 355.425 210.517 363.683C212.669 364.544 215.467 365.622 216.614 366.124C221.493 368.207 232.11 370.863 240.144 371.94C243.588 372.371 246.744 373.089 247.103 373.448C247.605 373.951 247.749 382.783 247.677 397.862L247.462 421.486L221.995 421.845C205.208 422.06 195.882 422.491 194.734 422.994C188.278 426.01 187.919 437.498 194.161 440.945C196.384 442.238 320.276 442.381 322.643 441.16C325.943 439.437 327.378 436.78 327.449 432.4C327.449 427.805 325.728 424.502 322.428 422.994C321.28 422.491 311.954 422.06 295.167 421.845L269.7 421.486L269.485 397.647C269.27 370.217 268.553 372.73 276.946 371.869C281.537 371.438 286.774 370.217 295.526 367.704C303.848 365.262 310.232 362.462 320.347 357.005C337.206 347.957 356.718 328.067 365.255 311.265C366.188 309.47 367.192 307.531 367.551 306.957C369.559 303.223 370.492 300.925 370.492 299.92C370.492 299.274 370.994 298.053 371.568 297.335C372.142 296.545 372.644 295.324 372.644 294.606C372.644 293.96 373.075 292.309 373.648 291.016C375.37 287.067 376.877 279.025 377.666 269.546C378.527 258.847 377.953 256.478 373.218 253.103C369.703 250.59 366.618 250.303 363.175 252.385C358.942 254.826 357.866 257.052 357.292 264.233C356.575 274.357 354.423 284.554 352.127 289.221C351.553 290.37 351.123 291.662 351.123 292.093C351.123 294.391 342.442 309.398 338.21 314.496C333.906 319.594 320.204 332.807 319.199 332.807C318.913 332.807 317.478 333.668 316.043 334.745C312.743 337.33 311.739 337.905 305.211 341.064C302.269 342.572 299.256 344.008 298.611 344.367C294.737 346.378 290.72 347.527 278.309 350.327C271.637 351.835 268.624 352.122 258.94 352.122C252.627 352.122 246.027 351.835 244.233 351.404C242.44 351.045 239.212 350.399 237.06 350.04C225.51 348.029 210.158 341.423 200.473 334.458C198.68 333.166 196.313 331.442 195.093 330.581C192.152 328.426 176.8 312.701 176.8 311.84C176.8 311.409 175.939 309.901 174.863 308.465C173.715 307.029 172.496 305.233 171.994 304.444C170.487 302.002 166.039 292.596 166.039 291.878C166.039 291.59 165.609 290.37 165.035 289.221C162.739 284.554 160.659 274.573 159.87 263.874C159.296 256.909 158.005 254.539 153.7 252.313C150.4 250.662 147.674 250.59 144.877 252.241Z" fill="white"/>
<rect x="12.5" y="12.5" width="502" height="496" rx="83.5" stroke="white" stroke-width="25"/>
</svg>
