<svg width="1400" height="980" viewBox="0 0 1400 980" fill="none" xmlns="http://www.w3.org/2000/svg">
<path d="M1400 0H0V980H1400V0Z" fill="#00B9BA"/>
<path d="M1400 856.3H0V980H1400V856.3Z" fill="#088996"/>
<path opacity="0.68" d="M700 942.8C950.075 942.8 1152.8 740.074 1152.8 490C1152.8 239.925 950.075 37.2 700 37.2C449.925 37.2 247.2 239.925 247.2 490C247.2 740.074 449.925 942.8 700 942.8Z" fill="#EEF2C2"/>
<path opacity="0.68" d="M700 922.7C938.974 922.7 1132.7 728.974 1132.7 490C1132.7 251.026 938.974 57.3 700 57.3C461.026 57.3 267.3 251.026 267.3 490C267.3 728.974 461.026 922.7 700 922.7Z" fill="white"/>
<g opacity="0.19">
<path opacity="0.19" d="M103.3 294.4C112.468 294.4 119.9 286.968 119.9 277.8C119.9 268.632 112.468 261.2 103.3 261.2C94.132 261.2 86.7 268.632 86.7 277.8C86.7 286.968 94.132 294.4 103.3 294.4Z" fill="#474E51"/>
<path opacity="0.19" d="M358.9 371.5C368.068 371.5 375.5 364.068 375.5 354.9C375.5 345.732 368.068 338.3 358.9 338.3C349.732 338.3 342.3 345.732 342.3 354.9C342.3 364.068 349.732 371.5 358.9 371.5Z" fill="#474E51"/>
<path opacity="0.19" d="M160.8 299.3C160.8 294.5 160.8 294.4 155.9 294.4C151.1 294.4 147.1 298.3 147.1 303.2C147.1 308.1 151 312 155.9 312C160.8 312 160.8 304.1 160.8 299.3Z" fill="#474E51"/>
<path opacity="0.19" d="M273 161.7C282.168 161.7 289.6 154.268 289.6 145.1C289.6 135.932 282.168 128.5 273 128.5C263.832 128.5 256.4 135.932 256.4 145.1C256.4 154.268 263.832 161.7 273 161.7Z" fill="#474E51"/>
<path opacity="0.19" d="M54.5 224.2C63.6679 224.2 71.1 216.768 71.1 207.6C71.1 198.432 63.6679 191 54.5 191C45.3321 191 37.9 198.432 37.9 207.6C37.9 216.768 45.3321 224.2 54.5 224.2Z" fill="#474E51"/>
<path opacity="0.19" d="M116.9 99.3001C128.222 99.3001 137.4 90.1219 137.4 78.8001C137.4 67.4782 128.222 58.3 116.9 58.3C105.578 58.3 96.4 67.4782 96.4 78.8001C96.4 90.1219 105.578 99.3001 116.9 99.3001Z" fill="#474E51"/>
<path opacity="0.19" d="M48.6 126.6C54.5095 126.6 59.3 121.809 59.3 115.9C59.3 109.991 54.5095 105.2 48.6 105.2C42.6906 105.2 37.9 109.991 37.9 115.9C37.9 121.809 42.6906 126.6 48.6 126.6Z" fill="#474E51"/>
<path opacity="0.19" d="M122.5 150.2C114.1 144.4 105 151.2 106.4 159.4C107.1 163.4 110.3 166.7 114.4 167.4C122.7 168.8 129.4 159.7 123.6 151.3C123.3 150.9 122.9 150.5 122.5 150.2Z" fill="#474E51"/>
<path opacity="0.19" d="M423 472.2C414.6 466.4 405.5 473.2 406.9 481.4C407.6 485.4 410.8 488.7 414.9 489.4C423.2 490.8 429.9 481.7 424.1 473.3C423.7 472.8 423.4 472.4 423 472.2Z" fill="#474E51"/>
<path opacity="0.19" d="M279.9 107.1C291.774 107.1 301.4 97.4742 301.4 85.6001C301.4 73.726 291.774 64.1001 279.9 64.1001C268.026 64.1001 258.4 73.726 258.4 85.6001C258.4 97.4742 268.026 107.1 279.9 107.1Z" fill="#474E51"/>
<path opacity="0.19" d="M341.3 71.9C347.209 71.9 352 67.1094 352 61.2C352 55.2906 347.209 50.5 341.3 50.5C335.391 50.5 330.6 55.2906 330.6 61.2C330.6 67.1094 335.391 71.9 341.3 71.9Z" fill="#474E51"/>
<path opacity="0.19" d="M208.6 60.2001C215.6 60.2001 221.3 54.5 221.3 47.5C221.3 40.5 215.6 34.8 208.6 34.8C201.6 34.8 192 36.7001 192 43.7001C192 50.7001 201.6 60.2001 208.6 60.2001Z" fill="#474E51"/>
<path opacity="0.19" d="M264.2 257.3C270.662 257.3 275.9 252.062 275.9 245.6C275.9 239.138 270.662 233.9 264.2 233.9C257.738 233.9 252.5 239.138 252.5 245.6C252.5 252.062 257.738 257.3 264.2 257.3Z" fill="#474E51"/>
<path opacity="0.19" d="M199.9 503.2C209.62 503.2 217.5 495.32 217.5 485.6C217.5 475.88 209.62 468 199.9 468C190.18 468 182.3 475.88 182.3 485.6C182.3 495.32 190.18 503.2 199.9 503.2Z" fill="#474E51"/>
<path opacity="0.19" d="M99.4 577.3C105.309 577.3 110.1 572.509 110.1 566.6C110.1 560.691 105.309 555.9 99.4 555.9C93.4905 555.9 88.7 560.691 88.7 566.6C88.7 572.509 93.4905 577.3 99.4 577.3Z" fill="#474E51"/>
<path opacity="0.19" d="M154 637.8C157.755 637.8 160.8 634.755 160.8 631C160.8 627.244 157.755 624.2 154 624.2C150.244 624.2 147.2 627.244 147.2 631C147.2 634.755 150.244 637.8 154 637.8Z" fill="#474E51"/>
<path opacity="0.19" d="M1083.8 71.9999C1089.21 71.9999 1093.6 67.6123 1093.6 62.1999C1093.6 56.7875 1089.21 52.3999 1083.8 52.3999C1078.39 52.3999 1074 56.7875 1074 62.1999C1074 67.6123 1078.39 71.9999 1083.8 71.9999Z" fill="#474E51"/>
<path opacity="0.19" d="M1156.9 60.2001C1162.8 60.2001 1167.6 55.4 1167.6 49.5C1167.6 43.6 1162.8 38.8 1156.9 38.8C1151 38.8 1142.3 39.7 1142.3 45.6C1142.3 51.5 1151 60.2001 1156.9 60.2001Z" fill="#474E51"/>
<path opacity="0.19" d="M1140.3 148C1148.92 148 1155.9 141.016 1155.9 132.4C1155.9 123.784 1148.92 116.8 1140.3 116.8C1131.68 116.8 1124.7 123.784 1124.7 132.4C1124.7 141.016 1131.68 148 1140.3 148Z" fill="#474E51"/>
<path opacity="0.19" d="M1253.5 140.3C1269.68 140.3 1282.8 127.182 1282.8 111C1282.8 94.818 1269.68 81.7 1253.5 81.7C1237.32 81.7 1224.2 94.818 1224.2 111C1224.2 127.182 1237.32 140.3 1253.5 140.3Z" fill="#474E51"/>
<path opacity="0.19" d="M1238.9 210.5C1244.81 210.5 1249.6 205.71 1249.6 199.8C1249.6 193.891 1244.81 189.1 1238.9 189.1C1232.99 189.1 1228.2 193.891 1228.2 199.8C1228.2 205.71 1232.99 210.5 1238.9 210.5Z" fill="#474E51"/>
<path opacity="0.19" d="M1117.9 561.7C1130.27 561.7 1140.3 551.671 1140.3 539.3C1140.3 526.929 1130.27 516.9 1117.9 516.9C1105.53 516.9 1095.5 526.929 1095.5 539.3C1095.5 551.671 1105.53 561.7 1117.9 561.7Z" fill="#474E51"/>
<path opacity="0.19" d="M1290.5 340.7C1289.9 337.1 1287 334.1 1283.3 333.5C1277.3 332.5 1272.2 337.6 1273.2 343.6C1273.8 347.2 1276.7 350.2 1280.4 350.8C1286.3 351.8 1291.4 346.7 1290.5 340.7Z" fill="#474E51"/>
<path opacity="0.19" d="M1301.3 257.3C1308.31 257.3 1314 251.614 1314 244.6C1314 237.586 1308.31 231.9 1301.3 231.9C1294.29 231.9 1288.6 237.586 1288.6 244.6C1288.6 251.614 1294.29 257.3 1301.3 257.3Z" fill="#474E51"/>
<path opacity="0.19" d="M1349.1 95.4C1356.67 95.4 1362.8 89.2663 1362.8 81.7C1362.8 74.1337 1356.67 68 1349.1 68C1341.53 68 1335.4 74.1337 1335.4 81.7C1335.4 89.2663 1341.53 95.4 1349.1 95.4Z" fill="#474E51"/>
<path opacity="0.19" d="M1345.2 825.2C1352.77 825.2 1358.9 819.066 1358.9 811.5C1358.9 803.934 1352.77 797.8 1345.2 797.8C1337.63 797.8 1331.5 803.934 1331.5 811.5C1331.5 819.066 1337.63 825.2 1345.2 825.2Z" fill="#474E51"/>
<path opacity="0.19" d="M1368.6 167.6C1374.01 167.6 1378.4 163.212 1378.4 157.8C1378.4 152.388 1374.01 148 1368.6 148C1363.19 148 1358.8 152.388 1358.8 157.8C1358.8 163.212 1363.19 167.6 1368.6 167.6Z" fill="#474E51"/>
<path opacity="0.19" d="M1345.2 386.1C1353.82 386.1 1360.8 379.116 1360.8 370.5C1360.8 361.884 1353.82 354.9 1345.2 354.9C1336.58 354.9 1329.6 361.884 1329.6 370.5C1329.6 379.116 1336.58 386.1 1345.2 386.1Z" fill="#474E51"/>
<path opacity="0.19" d="M960.8 546.1C969.416 546.1 976.4 539.116 976.4 530.5C976.4 521.884 969.416 514.9 960.8 514.9C952.184 514.9 945.2 521.884 945.2 530.5C945.2 539.116 952.184 546.1 960.8 546.1Z" fill="#474E51"/>
<path opacity="0.19" d="M1328.6 462.2C1334.51 462.2 1339.3 457.41 1339.3 451.5C1339.3 445.591 1334.51 440.8 1328.6 440.8C1322.69 440.8 1317.9 445.591 1317.9 451.5C1317.9 457.41 1322.69 462.2 1328.6 462.2Z" fill="#474E51"/>
<path opacity="0.19" d="M451.6 673.9C457.509 673.9 462.3 669.109 462.3 663.2C462.3 657.291 457.509 652.5 451.6 652.5C445.691 652.5 440.9 657.291 440.9 663.2C440.9 669.109 445.691 673.9 451.6 673.9Z" fill="#474E51"/>
<path opacity="0.19" d="M1276.9 518.8C1283.36 518.8 1288.6 513.562 1288.6 507.1C1288.6 500.638 1283.36 495.4 1276.9 495.4C1270.44 495.4 1265.2 500.638 1265.2 507.1C1265.2 513.562 1270.44 518.8 1276.9 518.8Z" fill="#474E51"/>
<path opacity="0.19" d="M1276 618.3C1281.91 618.3 1286.7 613.509 1286.7 607.6C1286.7 601.691 1281.91 596.9 1276 596.9C1270.09 596.9 1265.3 601.691 1265.3 607.6C1265.3 613.509 1270.09 618.3 1276 618.3Z" fill="#474E51"/>
<path opacity="0.19" d="M1325.7 585.2C1328.96 585.2 1331.6 582.558 1331.6 579.3C1331.6 576.042 1328.96 573.4 1325.7 573.4C1322.44 573.4 1319.8 576.042 1319.8 579.3C1319.8 582.558 1322.44 585.2 1325.7 585.2Z" fill="#474E51"/>
<path opacity="0.19" d="M1235 579.3C1242.01 579.3 1247.7 573.614 1247.7 566.6C1247.7 559.586 1242.01 553.9 1235 553.9C1227.99 553.9 1222.3 559.586 1222.3 566.6C1222.3 573.614 1227.99 579.3 1235 579.3Z" fill="#474E51"/>
<path opacity="0.19" d="M1228.1 690.5C1233.51 690.5 1237.9 686.112 1237.9 680.7C1237.9 675.288 1233.51 670.9 1228.1 670.9C1222.69 670.9 1218.3 675.288 1218.3 680.7C1218.3 686.112 1222.69 690.5 1228.1 690.5Z" fill="#474E51"/>
<path opacity="0.19" d="M45.7 55.6001L56.3 61.1001L54.3 49.4001L62.8 41.0001L51 39.3001L45.7 28.6001L40.4 39.3001L28.6 41.0001L37.2 49.4001L35.1 61.1001L45.7 55.6001Z" fill="#474E51"/>
<path opacity="0.19" d="M163.6 145.5L174.5 133.9L190.1 136.3L182.5 122.5L189.6 108.3L174.1 111.3L162.8 100.2L160.8 115.9L146.8 123.1L161.1 129.9L163.6 145.5Z" fill="#474E51"/>
<path opacity="0.19" d="M533 147.4L517.5 150.3L506.2 139.2L504.2 154.9L490.2 162.1L504.5 168.9L507 184.5L517.9 173L533.5 175.4L525.9 161.5L533 147.4Z" fill="#474E51"/>
<path opacity="0.19" d="M224.3 183.4L221.3 200.7L236.9 192.5L252.5 200.7L249.5 183.4L262.2 171.1L244.7 168.5L236.9 152.7L229.1 168.5L211.7 171.1L224.3 183.4Z" fill="#474E51"/>
<path opacity="0.19" d="M357.3 105.3L358.1 115.4L365.6 108.6L375.5 111L371.4 101.7L376.7 93.0999L366.6 94.0999L360 86.3999L357.9 96.2999L348.6 100.2L357.3 105.3Z" fill="#474E51"/>
<path opacity="0.19" d="M422.9 55.0001L412.9 59.7001L403.3 54.1001L404.7 65.1001L396.5 72.5001L407.3 74.6001L411.8 84.7001L417.1 75.0001L428.1 73.9001L420.6 65.8001L422.9 55.0001Z" fill="#474E51"/>
<path opacity="0.19" d="M326.5 183.9L339.5 175.3L354 181.2L349.9 166.2L359.9 154.2L344.3 153.5L336.1 140.3L330.6 154.9L315.4 158.6L327.6 168.4L326.5 183.9Z" fill="#474E51"/>
<path opacity="0.19" d="M351.5 254.8L367.7 261.2L362.9 244.4L374.1 231L356.7 230.3L347.4 215.6L341.3 232L324.4 236.2L338.1 247L337 264.4L351.5 254.8Z" fill="#474E51"/>
<path opacity="0.19" d="M1015.5 626.1L1006.2 611.4L1000.1 627.7L983.2 632L996.9 642.8L995.8 660.2L1010.3 650.5L1026.5 657L1021.7 640.2L1032.9 626.8L1015.5 626.1Z" fill="#474E51"/>
<path opacity="0.19" d="M283.5 299.2L298.3 284L277.2 281.5L267.3 262.7L258.4 282L237.5 285.6L253.1 300.1L250.1 321.1L268.6 310.7L287.7 320.1L283.5 299.2Z" fill="#474E51"/>
<path opacity="0.19" d="M98.6 426.8L111.1 413L129.6 415.4L120.3 399.2L128.3 382.3L110 386.2L96.4 373.4L94.5 392L78.1 400.9L95.2 408.5L98.6 426.8Z" fill="#474E51"/>
<path opacity="0.19" d="M395.6 575.5L377.3 579.4L363.7 566.5L361.8 585.1L345.4 594.1L362.5 601.6L365.9 620L378.4 606.1L396.9 608.5L387.6 592.4L395.6 575.5Z" fill="#474E51"/>
<path opacity="0.19" d="M53.4 336L63.3 341.2L61.5 330.2L69.5 322.5L58.5 320.8L53.6 310.8L48.6 320.7L37.6 322.2L45.5 330.1L43.5 341.1L53.4 336Z" fill="#474E51"/>
<path opacity="0.19" d="M187.4 373.9L185.3 370.9L184.2 374.4L180.7 375.5L183.7 377.6V381.3L186.6 379.1L190.1 380.2L188.9 376.8L191.1 373.8L187.4 373.9Z" fill="#474E51"/>
<path opacity="0.19" d="M141.3 444.8L147.5 433.4L134.7 435.4L125.8 426L123.8 438.8L112.1 444.3L123.6 450.2L125.3 463.1L134.4 454L147.2 456.3L141.3 444.8Z" fill="#474E51"/>
<path opacity="0.19" d="M60.4999 502.9L55.2999 495.4L52.4999 504.1L43.7999 506.9L51.2999 512.2L51.1999 521.3L58.4999 515.8L67.1999 518.8L64.1999 510.1L69.6999 502.8L60.4999 502.9Z" fill="#474E51"/>
<path opacity="0.19" d="M459.6 216.9L454.3 209.4L451.6 218.2L442.8 220.9L450.3 226.2L450.2 235.4L457.5 229.9L466.2 232.8L463.3 224.1L468.7 216.8L459.6 216.9Z" fill="#474E51"/>
<path opacity="0.19" d="M656 60.7L650.7 53.2L648 62L639.2 64.6999L646.7 70L646.6 79.1999L653.9 73.6999L662.6 76.5999L659.6 67.9L665.1 60.5999L656 60.7Z" fill="#474E51"/>
<path opacity="0.19" d="M487.9 116.7L493.4 109.4L484.3 109.5L479 102L476.2 110.8L467.5 113.5L475 118.8L474.9 127.9L482.2 122.5L490.9 125.4L487.9 116.7Z" fill="#474E51"/>
<path opacity="0.19" d="M412 385.9L420.6 388.8L417.7 380.1L423.2 372.8L414 372.9L408.7 365.4L406 374.2L397.3 376.9L404.7 382.2L404.6 391.4L412 385.9Z" fill="#474E51"/>
<path opacity="0.19" d="M949 252.8L956.3 247.3L965 250.3L962.1 241.6L967.6 234.3L958.4 234.4L953.1 226.9L950.4 235.6L941.6 238.4L949.1 243.7L949 252.8Z" fill="#474E51"/>
<path opacity="0.19" d="M1035.7 266L1030.4 258.5L1027.7 267.2L1018.9 270L1026.4 275.3L1026.3 284.4L1033.6 278.9L1042.3 281.9L1039.3 273.2L1044.8 265.9L1035.7 266Z" fill="#474E51"/>
<path opacity="0.19" d="M577.9 35.3999L572.6 27.8999L569.9 36.5999L561.2 39.2999L568.6 44.5999L568.5 53.7999L575.9 48.2999L584.5 51.2999L581.6 42.5999L587.1 35.1999L577.9 35.3999Z" fill="#474E51"/>
<path opacity="0.19" d="M177.8 539.1L170.7 527.4L165.7 540.2L152.3 543.4L163 552.1L161.9 565.9L173.5 558.4L186.2 563.7L182.6 550.3L191.6 539.9L177.8 539.1Z" fill="#474E51"/>
<path opacity="0.19" d="M312.1 443.2L304.9 431.4L300 444.3L286.6 447.5L297.3 456.2L296.2 469.9L307.8 462.4L320.5 467.7L316.9 454.4L325.9 443.9L312.1 443.2Z" fill="#474E51"/>
<path opacity="0.19" d="M99.2 632.3L89.6 644.6L74 643.7L82.8 656.7L77.1 671.3L92.1 666.9L104.2 676.8L104.7 661.2L117.9 652.7L103.2 647.4L99.2 632.3Z" fill="#474E51"/>
<path opacity="0.19" d="M1210.1 439.4L1206.1 432.2L1202.8 439.8L1194.6 441.3L1200.8 446.8L1199.8 455.1L1207 450.9L1214.5 454.4L1212.7 446.3L1218.4 440.2L1210.1 439.4Z" fill="#474E51"/>
<path opacity="0.19" d="M839.9 38.8L835.8 31.5L832.5 39.1L824.4 40.7L830.6 46.2L829.6 54.4L836.7 50.2L844.2 53.8L842.4 45.7L848.1 39.6L839.9 38.8Z" fill="#474E51"/>
<path opacity="0.19" d="M1221.6 291.2L1224.2 299.5L1229.2 292.4H1237.9L1232.7 285.5L1235.4 277.3L1227.2 280.1L1220.2 275L1220.3 283.7L1213.3 288.7L1221.6 291.2Z" fill="#474E51"/>
<path opacity="0.19" d="M988.1 121.1L1005.6 109.2L1025.2 116.8L1019.3 96.5999L1032.7 80.1999L1011.6 79.5999L1000.2 61.8999L993 81.6999L972.6 87.0999L989.3 99.9999L988.1 121.1Z" fill="#474E51"/>
<path opacity="0.19" d="M1058.4 353.5L1047 335.8L1039.9 355.6L1019.5 361L1036.2 373.9L1035 395L1052.4 383.1L1072.1 390.7L1066.2 370.5L1079.5 354.1L1058.4 353.5Z" fill="#474E51"/>
<path opacity="0.19" d="M916.2 40.7L910.7 34.5L909.1 42.7L901.5 46L908.8 50L909.6 58.3L915.7 52.6L923.8 54.4L920.2 46.9L924.4 39.7L916.2 40.7Z" fill="#474E51"/>
<path opacity="0.19" d="M453 69.4L471.5 59L490.6 68.4L486.4 47.5L501.2 32.3L480.1 29.8L470.2 11L461.3 30.3L440.4 33.9L456 48.3L453 69.4Z" fill="#474E51"/>
<path opacity="0.19" d="M1054.6 163.2L1059 159.9L1064.2 161.7L1062.5 156.5L1065.8 152.1L1060.3 152.2L1057.1 147.7L1055.5 152.9L1050.2 154.6L1054.7 157.7L1054.6 163.2Z" fill="#474E51"/>
<path opacity="0.19" d="M1191.1 79.8L1187 70.5L1192.3 61.9L1182.2 62.9L1175.6 55.2L1173.5 65.0999L1164.2 69L1172.9 74.0999L1173.7 84.0999L1181.2 77.4L1191.1 79.8Z" fill="#474E51"/>
<path opacity="0.19" d="M1250.1 67.4L1264.6 57.7L1280.8 64.1L1276.1 47.4L1287.3 34L1269.8 33.3L1260.5 18.5L1254.5 34.9L1237.6 39.2L1251.3 50L1250.1 67.4Z" fill="#474E51"/>
<path opacity="0.19" d="M875.6 131.5L891.8 138L887.1 121.2L898.2 107.8L880.8 107.1L871.5 92.3L865.5 108.7L848.6 113L862.3 123.8L861.1 141.2L875.6 131.5Z" fill="#474E51"/>
<path opacity="0.19" d="M1320.2 143L1309.2 141.3L1304.4 131.3L1299.4 141.2L1288.3 142.7L1296.2 150.6L1294.3 161.5L1304.2 156.4L1314 161.7L1312.2 150.7L1320.2 143Z" fill="#474E51"/>
<path opacity="0.19" d="M1157.1 187.5L1152.3 177.5L1147.2 187.5L1136.2 189L1144.1 196.8L1142.1 207.8L1152 202.7L1161.9 207.9L1160.1 196.9L1168.1 189.2L1157.1 187.5Z" fill="#474E51"/>
<path opacity="0.19" d="M1348.4 186.3L1342.3 199.8L1327.7 202.4L1338.7 212.3L1336.6 227L1349.5 219.7L1362.8 226.1L1359.8 211.6L1370 201L1355.4 199.3L1348.4 186.3Z" fill="#474E51"/>
<path opacity="0.19" d="M1040.8 495.4L1033.9 482.3L1027.8 495.8L1013.2 498.4L1024.1 508.4L1022.1 523L1035 515.7L1048.2 522.1L1045.3 507.7L1055.5 497L1040.8 495.4Z" fill="#474E51"/>
<path opacity="0.19" d="M1350 271.3L1343.3 280.7L1331.7 280.5L1338.5 289.8L1334.7 300.8L1345.7 297.1L1355 304.1L1354.9 292.6L1364.4 285.9L1353.4 282.4L1350 271.3Z" fill="#474E51"/>
<path opacity="0.19" d="M238.7 779.2L235.4 768.1L228.6 777.5L217 777.3L223.9 786.6L220.1 797.5L231.1 793.9L240.3 800.9L240.2 789.3L249.8 782.7L238.7 779.2Z" fill="#474E51"/>
<path opacity="0.19" d="M889.1 614L885.7 602.9L878.9 612.3L867.4 612.1L874.2 621.4L870.4 632.4L881.4 628.7L890.6 635.7V624.1L900.1 617.5L889.1 614Z" fill="#474E51"/>
<path opacity="0.19" d="M1202.9 386.3L1213.9 382.7L1223.1 389.7V378.1L1232.6 371.5L1221.5 367.9L1218.2 356.9L1211.4 366.3L1199.8 366L1206.7 375.4L1202.9 386.3Z" fill="#474E51"/>
<path opacity="0.19" d="M1141.6 248.7L1132.5 259.3L1118.7 257.8L1126 269.7L1120.3 282.5L1133.9 279.2L1144.2 288.5L1145.3 274.6L1157.4 267.6L1144.5 262.3L1141.6 248.7Z" fill="#474E51"/>
<path opacity="0.19" d="M1201.2 555.6L1197.8 544.5L1191.1 553.9L1179.5 553.7L1186.3 563L1182.5 574L1193.5 570.3L1202.8 577.3L1202.7 565.7L1212.2 559.1L1201.2 555.6Z" fill="#474E51"/>
<path opacity="0.19" d="M1144.2 795.9L1140.9 784.8L1134.1 794.2L1122.5 793.9L1129.4 803.3L1125.6 814.2L1136.6 810.6L1145.8 817.6V806L1155.3 799.4L1144.2 795.9Z" fill="#474E51"/>
<path opacity="0.19" d="M1343.1 495L1340.4 487.9L1336.4 494.4L1328.9 494.8L1333.8 500.5L1331.9 507.9L1338.9 504.9L1345.2 509L1344.6 501.5L1350.5 496.7L1343.1 495Z" fill="#474E51"/>
<path opacity="0.19" d="M1332.4 649.6L1338.3 645.2L1345.2 647.6L1342.9 640.6L1347.2 634.7L1339.9 634.8L1335.7 628.9L1333.5 635.9L1326.5 638L1332.5 642.3L1332.4 649.6Z" fill="#474E51"/>
<path opacity="0.19" d="M223.6 655.8L236.9 665.1L236.3 648.9L249.3 639.2L233.6 634.8L228.4 619.4L219.4 632.9L203.1 633.2L213.2 645.9L208.4 661.4L223.6 655.8Z" fill="#474E51"/>
<path opacity="0.19" d="M159.2 694.1L155.9 683L149.1 692.4L137.5 692.2L144.4 701.5L140.6 712.5L151.6 708.9L160.8 715.9V704.3L170.3 697.6L159.2 694.1Z" fill="#474E51"/>
<path opacity="0.19" d="M1291.2 721.3L1286.7 726.6L1279.7 725.9L1283.4 731.8L1280.6 738.2L1287.3 736.6L1292.5 741.2L1293.1 734.3L1299.1 730.8L1292.7 728.1L1291.2 721.3Z" fill="#474E51"/>
</g>
<path d="M1266.6 856.3H133.4V980H1266.6V856.3Z" fill="#F4D293"/>
<path d="M1028.6 856.3H371.4V980H1028.6V856.3Z" fill="#E3B886"/>
<path d="M1002.3 745.3H397.7V980H1002.3V745.3Z" fill="#FFE9AC"/>
<path d="M1002.3 745.3H930.1C902.3 813.5 796.6 955.8 397.7 957.3V980H1002.3V745.3Z" fill="#F7DAA3"/>
<path d="M921.3 350.3C913.6 335.8 901.1 325.2 886.2 320.6C868.8 315.2 852.1 314.9 837.7 319.5C825 323.6 814.8 331.5 807.5 342.6C808.4 325.9 808.8 312.3 808.9 305.5C809 302.9 806.7 300.9 803.9 300.9H776.6H735.8H700H596.2C593.4 300.9 591.2 303 591.2 305.5C591.3 312.3 591.7 325.8 592.6 342.6C585.3 331.5 575 323.6 562.4 319.5C548 314.8 531.2 315.2 513.9 320.6C498.9 325.2 486.5 335.8 478.8 350.3C469.9 367.1 468.4 387.1 474.9 403.8C486.1 432.6 525 473.5 577.7 495.8C621.5 514.3 622.1 521.4 622.6 527.1L622.7 528.1C623 531.5 622.2 534.4 620.6 535.8C618.4 537.6 613.9 537.2 611.4 536.8C610.6 536.7 610.4 536.5 610.2 535.9C609.8 535 609.8 533.8 610 533.1C613.9 532.3 616.9 529 616.9 525.2C617 520.7 613 516.9 608 516.9C599.6 516.8 592.9 523.3 591.9 532.3C590.9 542.6 597.7 551.3 608.2 553C610.6 553.4 612.8 553.6 614.8 553.6C623.7 553.7 629.3 550.7 632.7 547.9C638 543.5 640.8 536.6 640.6 528.9C647.3 541 652.6 549.3 653.9 551.4C654 551.5 654 551.6 654.1 551.7L654.2 551.8V551.9H654V561.8C654 568.1 657.4 574 663.1 577.6C668.8 581.2 672.3 587.1 672.3 593.4V620.3H664.4C652.1 620.3 642.1 629.5 642.1 640.8V652.3H641.3C629 652.3 619 661.5 619 672.8V685H607.9C595.6 685 585.6 694.2 585.6 705.5V745.3H769.7H814.1V705.5C814.1 694.2 804.1 685 791.8 685H780.7V673C780.7 661.7 770.7 652.5 758.4 652.5H757.6V641C757.6 629.7 747.6 620.5 735.3 620.5H727.4V593.6C727.4 587.2 730.9 581.3 736.6 577.8C742.3 574.2 745.7 568.3 745.7 562V552.1H745.5C745.5 552.1 751.3 543.2 759.2 529C759 536.7 761.9 543.5 767.1 548C770.5 550.8 776.1 553.8 785 553.7C787 553.7 789.2 553.5 791.6 553.1C802.1 551.4 808.9 542.7 807.9 532.4C807 523.4 800.2 516.9 791.8 517C786.8 517.1 782.9 520.8 782.9 525.3C783 529.2 785.9 532.4 789.8 533.2C790 534 790 535.1 789.6 536C789.4 536.5 789.1 536.7 788.4 536.9C785.9 537.3 781.4 537.7 779.2 535.9C777.6 534.6 776.8 531.6 777.1 528.2L777.2 527.2C777.7 521.5 778.3 514.4 822.1 495.9C874.8 473.6 913.7 432.7 924.9 403.9C931.6 387.1 930.2 367.1 921.3 350.3ZM585.2 480.9C537.5 460.7 501.4 423.3 491.7 398.3C486.9 385.9 488.1 370.3 494.8 357.5C500.4 347 509.1 339.4 519.5 336.2C533.6 331.9 567.8 325.5 581.9 360.1C586.6 371.6 586.7 381.1 582.3 387.8C579 392.8 572.9 396.2 566 396.9C560.6 397.5 555.4 392.1 554.1 386.9C552.9 382.1 554.4 380.2 554.9 379.6C557.3 376.5 563 375.3 564.9 375.1C569.8 374.6 573.4 370.6 572.9 366.1C572.4 361.6 568 358.3 563.1 358.7C561.6 358.8 548 360.3 540.4 369.9C537.3 373.8 534.1 380.6 536.6 390.5C539.6 403 552.2 414.9 568.1 413.3C580.1 412 590.9 406 597.1 397.2C599.5 417.8 602.8 437.9 607.5 453.3C612.8 470.8 620.1 488.2 627.3 503.3C619.3 497 606.4 489.8 585.2 480.9ZM908.2 398.3C898.5 423.3 862.4 460.7 814.7 480.9C793.5 489.9 780.6 497 772.6 503.2C779.8 488.1 787.1 470.8 792.4 453.2C797 437.8 800.4 417.7 802.8 397.1C809.1 405.9 819.8 412 831.8 413.2C847.6 414.9 860.2 402.9 863.3 390.4C865.7 380.4 862.6 373.7 859.5 369.8C851.9 360.2 838.4 358.7 836.8 358.6C831.9 358.2 827.5 361.5 827 366C826.5 370.5 830.1 374.5 835 375C836.8 375.2 842.6 376.4 845 379.5C845.5 380.1 847 382.1 845.8 386.8C844.5 392 839.3 397.3 833.9 396.8C827 396.1 820.9 392.7 817.6 387.7C813.2 381.1 813.3 371.5 818 360C832.1 325.4 866.3 331.7 880.4 336.1C890.8 339.3 899.5 346.9 905.1 357.4C911.9 370.3 913.1 385.9 908.2 398.3Z" fill="#D4D8A7"/>
<path d="M657.6 223.3L675.8 239.6C676.4 240.2 676.7 241 676.6 241.8L672.8 261.9L672.2 264.9C672.2 265 672.2 265.2 672.2 265.3C672.2 265.7 672.3 266 672.4 266.3C672.5 266.6 672.8 266.9 673 267.1C673.1 267.2 673.2 267.2 673.3 267.3C673.4 267.3 673.5 267.4 673.5 267.4C673.7 267.5 673.9 267.6 674.1 267.6C674.1 267.6 674.1 267.6 674.2 267.6H674.3C674.5 267.6 674.6 267.6 674.8 267.7H674.9C675.1 267.7 675.3 267.7 675.5 267.6C675.5 267.6 675.5 267.6 675.6 267.6C675.8 267.6 676 267.5 676.2 267.4L698.7 256.5C699.5 256.1 700.4 256.1 701.2 256.5L723.7 267.4C725.2 268.1 726.9 267.4 727.5 266.2C727.6 265.9 727.7 265.5 727.7 265.2C727.7 265.1 727.7 265 727.7 264.8L723.4 241.8C723.3 241.2 723.4 240.6 723.8 240.1C723.9 239.9 724.1 239.8 724.2 239.6L742.4 223.3C742.6 223.1 742.8 222.9 742.9 222.7C743.2 222.3 743.3 221.8 743.2 221.4C743.1 220.3 742.3 219.2 740.9 219.1L715.7 215.7C714.8 215.6 714.1 215.1 713.7 214.3L710.4 208.2L702.4 193.4C701.4 191.6 698.5 191.6 697.5 193.4L686.2 214.4C685.8 215.1 685 215.6 684.2 215.8L659 219.2C656.8 219.4 655.9 221.9 657.6 223.3Z" fill="#D4D8A7"/>
<path d="M595.8 262.1C596.3 262.5 596.5 263.1 596.4 263.7L593.9 277.1L593.2 280.9C593.2 281 593.2 281.2 593.2 281.3C593.2 281.4 593.2 281.5 593.3 281.6C593.3 281.7 593.3 281.7 593.4 281.8C593.4 281.9 593.5 282 593.5 282C593.5 282.1 593.6 282.1 593.6 282.2C593.6 282.2 593.6 282.3 593.7 282.3L593.8 282.4C593.9 282.5 593.9 282.5 594 282.6C594.1 282.7 594.1 282.7 594.2 282.7C594.3 282.7 594.4 282.8 594.4 282.8C594.5 282.8 594.5 282.9 594.6 282.9C594.7 282.9 594.8 282.9 594.9 283C595 283 595 283 595.1 283C595.1 283 595.1 283 595.2 283C595.3 283 595.4 283 595.6 283C595.7 283 595.7 283 595.8 283C596 283 596.2 282.9 596.3 282.8L613.1 274.7C613.2 274.6 613.4 274.6 613.6 274.5C614.1 274.4 614.6 274.4 615 274.7L631.8 282.8C632.2 283 632.6 283 632.9 283C633.4 283 634 282.7 634.3 282.3C634.6 281.9 634.8 281.4 634.7 280.8L631.5 263.6C631.5 263.4 631.5 263.3 631.5 263.1C631.5 263 631.5 262.8 631.6 262.7C631.7 262.4 631.9 262.2 632.1 261.9L645.7 249.7C645.8 249.6 645.9 249.5 646 249.3C646.1 249.1 646.2 249 646.2 248.8C646.2 248.6 646.3 248.5 646.2 248.3C646.2 248 646.1 247.6 645.9 247.4C645.6 247 645.1 246.7 644.5 246.6L634.4 245.3L625.7 244.1C625 244 624.5 243.6 624.2 243.1L621.7 238.5L615.7 227.4C615 226 612.8 226 612.1 227.4L603.7 243C603.4 243.5 602.8 243.9 602.2 244L583.4 246.5C581.7 246.7 581.1 248.6 582.3 249.7L595.8 262.1Z" fill="#D4D8A7"/>
<path d="M768.1 262.1C768.6 262.5 768.8 263.1 768.7 263.7L765.5 280.9C765.5 281 765.5 281.2 765.5 281.3C765.5 281.4 765.5 281.5 765.6 281.6C765.6 281.7 765.6 281.7 765.7 281.8C765.7 281.9 765.8 282 765.8 282C765.8 282.1 765.9 282.1 765.9 282.2C766 282.3 766 282.3 766.1 282.4C766.2 282.5 766.2 282.5 766.3 282.6C766.4 282.7 766.4 282.7 766.5 282.7C766.6 282.7 766.7 282.8 766.7 282.8C766.8 282.8 766.8 282.9 766.9 282.9C767 282.9 767.1 282.9 767.2 283C767.3 283 767.3 283 767.4 283C767.5 283 767.6 283 767.8 283C767.9 283 767.9 283 768 283C768.2 283 768.4 282.9 768.5 282.8L785.3 274.7C785.6 274.6 785.9 274.5 786.2 274.5C786.5 274.5 786.8 274.6 787.1 274.7L803.9 282.8C804.1 282.9 804.3 282.9 804.5 283C804.7 283 804.9 283 805.1 283C805.5 283 805.8 282.8 806.1 282.6C806.4 282.4 806.6 282.1 806.8 281.8C807 281.5 807 281.1 806.9 280.8L803.7 263.6C803.7 263.4 803.7 263.3 803.7 263.1C803.7 263 803.7 262.8 803.8 262.7C803.9 262.4 804.1 262.2 804.3 261.9L817.9 249.7C818.6 249 818.7 248 818.2 247.4C817.9 247 817.4 246.7 816.8 246.6L806.7 245.3L798 244.1C797.3 244 796.8 243.6 796.5 243.1L794 238.5L788 227.4C787.3 226 785.1 226 784.4 227.4L776 243C775.7 243.5 775.1 243.9 774.5 244L755.7 246.5C754 246.7 753.4 248.6 754.6 249.7L768.1 262.1Z" fill="#D4D8A7"/>
<path d="M614.9 536.5C612.9 536.5 610.7 536.3 608.3 535.9C597.8 534.1 591 524.6 592 513.3C592.9 503.5 599.7 496.4 608.1 496.5C613.1 496.6 617 500.6 617 505.6C616.9 509.8 614 513.3 610.1 514.2C609.9 515 609.9 516.3 610.3 517.3C610.5 517.9 610.8 518.1 611.5 518.2C614 518.6 618.5 519.1 620.7 517.1C622.3 515.6 623.1 512.4 622.8 508.7L622.7 507.6C622.2 501.4 621.6 493.6 577.8 473.5C525.1 449.2 486.2 404.6 475 373.2C468.5 355 470 333.2 478.9 314.9C486.6 299 499.1 287.5 514 282.5C531.4 276.7 548.1 276.3 562.5 281.4C579.2 287.3 591.8 300.4 598.9 319.3C607.3 341.9 603 356.7 597.8 365.1C591.6 375.2 580.6 382.1 568.2 383.5C552.4 385.3 539.8 372.3 536.7 358.7C534.3 347.8 537.4 340.5 540.5 336.2C548.1 325.7 561.6 324.1 563.2 324C568.1 323.5 572.5 327.1 573 332.1C573.5 337 569.9 341.4 565 341.9C563.2 342.1 557.4 343.5 555 346.8C554.5 347.5 553 349.6 554.2 354.8C555.5 360.4 560.7 366.3 566.1 365.7C573 364.9 579.1 361.2 582.4 355.8C586.8 348.6 586.7 338.2 582 325.6C567.9 287.9 533.7 294.8 519.6 299.5C509.2 303 500.5 311.2 494.9 322.7C488.2 336.6 487 353.6 491.8 367.2C501.5 394.4 537.6 435.2 585.3 457.2C634.8 480 639.4 491.9 640.6 506.2L640.7 507.2C641.5 516.6 638.7 525.1 632.9 530.4C629.4 533.4 623.7 536.6 614.9 536.5Z" fill="#F89520"/>
<path d="M785.1 536.5C787.1 536.5 789.3 536.3 791.7 535.9C802.2 534.1 809 524.6 808 513.3C807.1 503.5 800.3 496.4 791.9 496.5C786.9 496.6 783 500.6 783 505.6C783.1 509.8 786 513.3 789.9 514.2C790.1 515 790.1 516.3 789.7 517.3C789.5 517.9 789.2 518.1 788.5 518.2C786 518.6 781.5 519.1 779.3 517.1C777.7 515.6 776.9 512.4 777.2 508.7L777.3 507.6C777.8 501.4 778.4 493.6 822.2 473.5C874.9 449.2 913.8 404.6 925 373.2C931.5 355 930 333.2 921.1 314.9C913.4 299 900.9 287.5 886 282.5C868.6 276.7 851.9 276.3 837.5 281.4C820.8 287.3 808.2 300.4 801.1 319.3C792.7 341.9 797 356.7 802.2 365.1C808.4 375.2 819.4 382.1 831.8 383.5C847.6 385.3 860.2 372.3 863.3 358.7C865.7 347.8 862.6 340.5 859.5 336.2C851.9 325.7 838.4 324.1 836.8 324C831.9 323.5 827.5 327.1 827 332.1C826.5 337 830.1 341.4 835 341.9C836.8 342.1 842.6 343.5 845 346.8C845.5 347.5 847 349.6 845.8 354.8C844.5 360.4 839.3 366.3 833.9 365.7C827 364.9 820.9 361.2 817.6 355.8C813.2 348.6 813.3 338.2 818 325.6C832.1 287.9 866.3 294.8 880.4 299.5C890.8 303 899.5 311.2 905.1 322.7C911.8 336.6 913 353.6 908.2 367.2C898.5 394.4 862.4 435.2 814.7 457.2C765.2 480 760.6 491.9 759.4 506.2L759.3 507.2C758.5 516.6 761.3 525.1 767.1 530.4C770.6 533.4 776.3 536.6 785.1 536.5Z" fill="#F18621"/>
<path d="M808.8 266C808.9 263.2 806.6 260.9 803.8 260.9H700H596.2C593.4 260.9 591.2 263.2 591.2 266C591.6 288.3 594.2 379 607.5 427C622.7 482 654.3 534.8 654.3 534.8H654.1V545.6C654.1 552.5 657.6 559 663.3 562.9C669 566.8 672.4 573.2 672.4 580.1V610.6H700H727.5V580C727.5 573.1 731 566.6 736.7 562.7C742.4 558.8 745.8 552.4 745.8 545.5V534.7H745.6C745.6 534.7 777.2 481.9 792.4 426.9C805.8 379 808.4 288.3 808.8 266Z" fill="#FBAB1B"/>
<path d="M678.5 604.5V580C678.5 571.1 674.1 562.8 666.8 557.8C662.7 555 660.2 550.4 660.2 545.5V540.7H664.9L659.5 531.6C659.2 531.1 628.1 478.8 613.3 425.3C600.3 378.3 597.7 287.4 597.2 266.9H802.8C802.4 287.4 799.7 378.3 786.7 425.3C771.9 478.8 740.8 531.1 740.5 531.6L735.1 540.7H739.8V545.5C739.8 550.4 737.4 555 733.3 557.8C725.9 562.8 721.5 571.1 721.5 580V604.5H678.5V604.5Z" fill="#FFC611"/>
<path d="M728.9 439C718.7 497.2 682.7 518.2 637.2 502.6C646.7 522 654.4 534.8 654.4 534.8H654.2V545.6C654.2 552.5 657.7 559 663.4 562.9C669.1 566.8 672.5 573.2 672.5 580.1V610.6H700H727.5V580C727.5 573.1 731 566.6 736.7 562.7C742.4 558.8 745.8 552.4 745.8 545.5V534.7H745.6C745.6 534.7 777.2 481.9 792.4 426.9C805.7 378.9 808.3 288.3 808.7 265.9C808.8 263.1 806.5 260.8 803.7 260.8H735.6C736.7 306.7 737.2 391.6 728.9 439Z" fill="#F89520"/>
<path d="M654.2 545.5C654.2 552.4 657.6 558.8 663.3 562.7C669 566.6 672.5 573 672.5 580V610.5H700H727.5V580C727.5 573.1 731 566.6 736.7 562.7C742.4 558.8 745.8 552.4 745.8 545.5V534.7H745.6C745.6 534.7 777.2 481.9 792.4 426.9C805.7 378.9 808.3 288.3 808.7 265.9C808.8 263.1 806.5 260.8 803.7 260.8H776.4C778 301.3 779.7 431.1 739.3 494.1C709.7 540.3 674.7 539.1 652.2 531.2C653.5 533.4 654.2 534.6 654.2 534.6H654V545.5H654.2Z" fill="#F18621"/>
<path d="M735.4 609.3H664.5C652.2 609.3 642.2 619.3 642.2 631.6V645.1H757.7V631.6C757.7 619.3 747.8 609.3 735.4 609.3Z" fill="#F89520"/>
<path d="M735.4 609.3H705.4C717.7 609.3 727.7 619.3 727.7 631.6V645.1H757.7V631.6C757.7 619.3 747.8 609.3 735.4 609.3Z" fill="#F18621"/>
<path d="M758.5 644.2H641.5C629.2 644.2 619.2 654.2 619.2 666.5V680H780.9V666.5C780.8 654.1 770.9 644.2 758.5 644.2Z" fill="#FFC611"/>
<path d="M758.5 644.2H724.8C737.1 644.2 747.1 654.2 747.1 666.5V680H780.8V666.5C780.8 654.1 770.9 644.2 758.5 644.2Z" fill="#F89520"/>
<path d="M791.9 679.6H608.1C595.8 679.6 585.8 689.6 585.8 701.9V745.3H814.3V701.9C814.2 689.6 804.2 679.6 791.9 679.6Z" fill="#15374D"/>
<path d="M791.9 679.6H747.5C759.8 679.6 769.8 689.6 769.8 701.9V745.3H814.2V701.9C814.2 689.6 804.2 679.6 791.9 679.6Z" fill="#07293D"/>
<path d="M640.5 480.2C638.2 480.2 636.1 478.9 635.1 476.7C633.6 473.3 633.2 472 632.2 469.3C631.9 468.4 631.5 467.3 631 465.8C629.9 462.7 631.5 459.4 634.6 458.3C637.7 457.2 641 458.8 642.1 461.9C642.6 463.4 643 464.5 643.3 465.4C644.2 468 644.5 469 645.8 472C647.1 475 645.7 478.4 642.7 479.7C642.1 480 641.3 480.2 640.5 480.2Z" fill="white"/>
<path d="M629.4 447.8C626.9 447.8 624.6 446.2 623.8 443.7C621.4 436.1 619.6 431 618.3 427.2C616.3 421.5 615.2 418.3 614.3 413.7C613.6 410.5 615.7 407.4 618.9 406.8C622.1 406.1 625.2 408.2 625.8 411.4C626.6 415.2 627.5 417.8 629.4 423.4C630.7 427.2 632.5 432.4 635 440.1C636 443.2 634.3 446.5 631.2 447.5C630.6 447.8 630 447.8 629.4 447.8Z" fill="white"/>
<path d="M615.8 393.1C612.9 393.1 610.3 390.9 610 387.9C604.1 338.9 603.4 278 603.4 277.4C603.4 274.2 606 271.5 609.2 271.5C609.2 271.5 609.2 271.5 609.3 271.5C612.5 271.5 615.1 274.1 615.2 277.3C615.2 277.9 615.8 338.1 621.7 386.5C622.1 389.7 619.8 392.7 616.6 393C616.3 393.1 616.1 393.1 615.8 393.1Z" fill="white"/>
<path d="M742.4 176.3C744 174.7 743.1 172 740.9 171.7L715.7 168C714.8 167.9 714.1 167.3 713.7 166.5L702.4 143.7C701.4 141.7 698.5 141.7 697.5 143.7L686.2 166.5C685.8 167.3 685 167.9 684.2 168L659 171.7C656.8 172 655.9 174.8 657.5 176.3L675.7 194.1C676.3 194.7 676.6 195.6 676.5 196.5L672.2 221.6C671.8 223.8 674.1 225.5 676.1 224.5L698.6 212.6C699.4 212.2 700.3 212.2 701.1 212.6L723.6 224.5C725.6 225.5 727.9 223.9 727.5 221.6L723.2 196.5C723 195.6 723.3 194.7 724 194.1L742.4 176.3Z" fill="#FBAF41"/>
<path d="M740.9 171.7L715.7 168C714.8 167.9 714.1 167.3 713.7 166.5L710.4 159.8C710.3 176.3 704.6 202.3 673.2 215.9L672.2 221.5C671.8 223.7 674.1 225.4 676.1 224.4L698.6 212.5C699.4 212.1 700.3 212.1 701.1 212.5L723.6 224.4C725.6 225.4 727.9 223.8 727.5 221.5L723.2 196.4C723 195.5 723.3 194.6 724 194L742.2 176.2C744.1 174.8 743.2 172 740.9 171.7Z" fill="#F89520"/>
<path d="M740.9 171.7L727.4 169.7C723.4 181.3 710.6 206.8 672.2 222.2C672.3 224.1 674.4 225.4 676.2 224.4L698.7 212.5C699.5 212.1 700.4 212.1 701.2 212.5L723.7 224.4C725.7 225.4 728 223.8 727.6 221.5L723.3 196.4C723.1 195.5 723.4 194.6 724.1 194L742.3 176.2C744.1 174.8 743.2 172 740.9 171.7Z" fill="#F18621"/>
<path d="M645.5 205.4C646.7 204.2 646 202.2 644.4 202L625.6 199.3C624.9 199.2 624.4 198.8 624.1 198.2L615.7 181.2C615 179.7 612.8 179.7 612.1 181.2L603.7 198.2C603.4 198.8 602.8 199.2 602.2 199.3L583.4 202C581.7 202.2 581.1 204.3 582.3 205.4L595.9 218.7C596.4 219.2 596.6 219.8 596.5 220.5L593.3 239.2C593 240.9 594.7 242.1 596.2 241.3L613 232.5C613.6 232.2 614.3 232.2 614.9 232.5L631.7 241.3C633.2 242.1 634.9 240.8 634.6 239.2L631.4 220.5C631.3 219.8 631.5 219.2 632 218.7L645.5 205.4Z" fill="#FBAF41"/>
<path d="M644.4 201.9L625.6 199.2C624.9 199.1 624.4 198.7 624.1 198.1L621.6 193.1C621.5 205.4 617.3 224.8 593.8 235L593.1 239.2C592.8 240.9 594.5 242.1 596 241.3L612.8 232.5C613.4 232.2 614.1 232.2 614.7 232.5L631.5 241.3C633 242.1 634.7 240.8 634.4 239.2L631.2 220.5C631.1 219.8 631.3 219.2 631.8 218.7L645.4 205.4C646.7 204.2 646 202.2 644.4 201.9Z" fill="#F89520"/>
<path d="M644.4 201.9L634.3 200.4C631.3 209 621.7 228.1 593.1 239.6C593.2 241 594.7 242 596.1 241.3L612.9 232.5C613.5 232.2 614.2 232.2 614.8 232.5L631.6 241.3C633.1 242.1 634.8 240.8 634.5 239.2L631.3 220.5C631.2 219.8 631.4 219.2 631.9 218.7L645.5 205.4C646.7 204.2 646 202.2 644.4 201.9Z" fill="#F18621"/>
<path d="M817.9 205.4C819.1 204.2 818.4 202.2 816.8 202L798 199.3C797.3 199.2 796.8 198.8 796.5 198.2L788.1 181.2C787.4 179.7 785.2 179.7 784.5 181.2L776.1 198.2C775.8 198.8 775.2 199.2 774.6 199.3L755.8 202C754.1 202.2 753.5 204.3 754.7 205.4L768.3 218.7C768.8 219.2 769 219.8 768.9 220.5L765.7 239.2C765.4 240.9 767.1 242.1 768.6 241.3L785.4 232.5C786 232.2 786.7 232.2 787.3 232.5L804.1 241.3C805.6 242.1 807.3 240.8 807 239.2L803.8 220.5C803.7 219.8 803.9 219.2 804.4 218.7L817.9 205.4Z" fill="#FBAF41"/>
<path d="M816.7 201.9L797.9 199.2C797.2 199.1 796.7 198.7 796.4 198.1L793.9 193.1C793.8 205.4 789.6 224.8 766.1 235L765.4 239.2C765.1 240.9 766.8 242.1 768.3 241.3L785.1 232.5C785.7 232.2 786.4 232.2 787 232.5L803.8 241.3C805.3 242.1 807 240.8 806.7 239.2L803.5 220.5C803.4 219.8 803.6 219.2 804.1 218.7L817.7 205.4C819.1 204.2 818.4 202.2 816.7 201.9Z" fill="#F89520"/>
<path d="M816.7 201.9L806.6 200.4C803.6 209 794 228.1 765.4 239.6C765.5 241 767 242 768.4 241.3L785.2 232.5C785.8 232.2 786.5 232.2 787.1 232.5L803.9 241.3C805.4 242.1 807.1 240.8 806.8 239.2L803.6 220.5C803.5 219.8 803.7 219.2 804.2 218.7L817.8 205.4C819.1 204.2 818.4 202.2 816.7 201.9Z" fill="#F18621"/>
<path d="M98.3 283.4C107.468 283.4 114.9 275.968 114.9 266.8C114.9 257.632 107.468 250.2 98.3 250.2C89.132 250.2 81.7 257.632 81.7 266.8C81.7 275.968 89.132 283.4 98.3 283.4Z" fill="#1C75BC"/>
<path d="M353.9 360.5C363.068 360.5 370.5 353.068 370.5 343.9C370.5 334.732 363.068 327.3 353.9 327.3C344.732 327.3 337.3 334.732 337.3 343.9C337.3 353.068 344.732 360.5 353.9 360.5Z" fill="#1C75BC"/>
<path d="M155.8 288.3C155.8 293.1 155.8 301 150.9 301C146 301 142.1 297.1 142.1 292.2C142.1 287.4 146 283.4 150.9 283.4C155.8 283.4 155.8 283.4 155.8 288.3Z" fill="#EE2A7B"/>
<path d="M268 150.7C277.168 150.7 284.6 143.268 284.6 134.1C284.6 124.932 277.168 117.5 268 117.5C258.832 117.5 251.4 124.932 251.4 134.1C251.4 143.268 258.832 150.7 268 150.7Z" fill="#EEF2C2"/>
<path d="M49.5 213.2C58.6679 213.2 66.1 205.768 66.1 196.6C66.1 187.432 58.6679 180 49.5 180C40.3321 180 32.9 187.432 32.9 196.6C32.9 205.768 40.3321 213.2 49.5 213.2Z" fill="#EEF2C2"/>
<path d="M111.9 88.3001C123.222 88.3001 132.4 79.1219 132.4 67.8001C132.4 56.4782 123.222 47.3 111.9 47.3C100.578 47.3 91.4 56.4782 91.4 67.8001C91.4 79.1219 100.578 88.3001 111.9 88.3001Z" fill="#1C75BC"/>
<path d="M43.6 115.6C49.5095 115.6 54.3 110.809 54.3 104.9C54.3 98.9905 49.5095 94.2 43.6 94.2C37.6906 94.2 32.9 98.9905 32.9 104.9C32.9 110.809 37.6906 115.6 43.6 115.6Z" fill="#EEF2C2"/>
<path d="M118.5 140.3C124.3 148.7 117.5 157.8 109.3 156.4C105.3 155.7 102 152.5 101.3 148.4C99.9 140.1 109 133.4 117.4 139.2C117.9 139.5 118.3 139.9 118.5 140.3Z" fill="#39B54A"/>
<path d="M419 462.2C424.8 470.6 418 479.7 409.8 478.3C405.8 477.6 402.5 474.4 401.8 470.3C400.4 462 409.5 455.3 417.9 461.1C418.4 461.4 418.7 461.8 419 462.2Z" fill="#39B54A"/>
<path d="M274.9 96.1001C286.774 96.1001 296.4 86.4742 296.4 74.6001C296.4 62.726 286.774 53.1001 274.9 53.1001C263.026 53.1001 253.4 62.726 253.4 74.6001C253.4 86.4742 263.026 96.1001 274.9 96.1001Z" fill="#FFF200"/>
<path d="M336.3 60.9C342.209 60.9 347 56.1094 347 50.2C347 44.2906 342.209 39.5 336.3 39.5C330.391 39.5 325.6 44.2906 325.6 50.2C325.6 56.1094 330.391 60.9 336.3 60.9Z" fill="#EEF2C2"/>
<path d="M216.3 36.5999C216.3 43.5999 210.6 49.2999 203.6 49.2999C196.6 49.2999 187 39.6999 187 32.6999C187 25.6999 196.6 23.8999 203.6 23.8999C210.6 23.8999 216.3 29.5999 216.3 36.5999Z" fill="#EE2A7B"/>
<path d="M259.2 246.3C265.662 246.3 270.9 241.062 270.9 234.6C270.9 228.138 265.662 222.9 259.2 222.9C252.738 222.9 247.5 228.138 247.5 234.6C247.5 241.062 252.738 246.3 259.2 246.3Z" fill="#EEF2C2"/>
<path d="M194.9 492.2C204.62 492.2 212.5 484.32 212.5 474.6C212.5 464.88 204.62 457 194.9 457C185.18 457 177.3 464.88 177.3 474.6C177.3 484.32 185.18 492.2 194.9 492.2Z" fill="#DA1C5C"/>
<path d="M94.4 566.3C100.309 566.3 105.1 561.509 105.1 555.6C105.1 549.691 100.309 544.9 94.4 544.9C88.4905 544.9 83.7 549.691 83.7 555.6C83.7 561.509 88.4905 566.3 94.4 566.3Z" fill="#EE2A7B"/>
<path d="M149 626.8C152.755 626.8 155.8 623.755 155.8 620C155.8 616.244 152.755 613.2 149 613.2C145.244 613.2 142.2 616.244 142.2 620C142.2 623.755 145.244 626.8 149 626.8Z" fill="#DA1C5C"/>
<path d="M1078.8 60.9999C1084.21 60.9999 1088.6 56.6123 1088.6 51.1999C1088.6 45.7875 1084.21 41.3999 1078.8 41.3999C1073.39 41.3999 1069 45.7875 1069 51.1999C1069 56.6123 1073.39 60.9999 1078.8 60.9999Z" fill="#DA1C5C"/>
<path d="M1162.7 38.5C1162.7 44.4 1157.9 49.2001 1152 49.2001C1146.1 49.2001 1137.4 40.5 1137.4 34.6C1137.4 28.7 1146.1 27.8 1152 27.8C1157.9 27.8 1162.7 32.6 1162.7 38.5Z" fill="#EE2A7B"/>
<path d="M1135.3 137C1143.92 137 1150.9 130.016 1150.9 121.4C1150.9 112.784 1143.92 105.8 1135.3 105.8C1126.68 105.8 1119.7 112.784 1119.7 121.4C1119.7 130.016 1126.68 137 1135.3 137Z" fill="#EEF2C2"/>
<path d="M1248.5 129.3C1264.68 129.3 1277.8 116.182 1277.8 100C1277.8 83.818 1264.68 70.7 1248.5 70.7C1232.32 70.7 1219.2 83.818 1219.2 100C1219.2 116.182 1232.32 129.3 1248.5 129.3Z" fill="#DA1C5C"/>
<path d="M1233.9 199.5C1239.81 199.5 1244.6 194.71 1244.6 188.8C1244.6 182.891 1239.81 178.1 1233.9 178.1C1227.99 178.1 1223.2 182.891 1223.2 188.8C1223.2 194.71 1227.99 199.5 1233.9 199.5Z" fill="#1C75BC"/>
<path d="M1112.9 550.7C1125.27 550.7 1135.3 540.671 1135.3 528.3C1135.3 515.929 1125.27 505.9 1112.9 505.9C1100.53 505.9 1090.5 515.929 1090.5 528.3C1090.5 540.671 1100.53 550.7 1112.9 550.7Z" fill="#F15A29"/>
<path d="M1285.5 329.7C1286.5 335.7 1281.4 340.8 1275.4 339.8C1271.8 339.2 1268.8 336.3 1268.2 332.6C1267.2 326.6 1272.3 321.5 1278.3 322.5C1281.9 323.1 1284.9 326.1 1285.5 329.7Z" fill="#39B54A"/>
<path d="M1296.3 246.3C1303.31 246.3 1309 240.614 1309 233.6C1309 226.586 1303.31 220.9 1296.3 220.9C1289.29 220.9 1283.6 226.586 1283.6 233.6C1283.6 240.614 1289.29 246.3 1296.3 246.3Z" fill="#EE2A7B"/>
<path d="M1344.1 84.4C1351.67 84.4 1357.8 78.2663 1357.8 70.7C1357.8 63.1337 1351.67 57 1344.1 57C1336.53 57 1330.4 63.1337 1330.4 70.7C1330.4 78.2663 1336.53 84.4 1344.1 84.4Z" fill="#1C75BC"/>
<path d="M1340.2 814.2C1347.77 814.2 1353.9 808.066 1353.9 800.5C1353.9 792.934 1347.77 786.8 1340.2 786.8C1332.63 786.8 1326.5 792.934 1326.5 800.5C1326.5 808.066 1332.63 814.2 1340.2 814.2Z" fill="#1C75BC"/>
<path d="M1363.6 156.6C1369.01 156.6 1373.4 152.212 1373.4 146.8C1373.4 141.388 1369.01 137 1363.6 137C1358.19 137 1353.8 141.388 1353.8 146.8C1353.8 152.212 1358.19 156.6 1363.6 156.6Z" fill="#EEF2C2"/>
<path d="M1340.2 375.1C1348.82 375.1 1355.8 368.116 1355.8 359.5C1355.8 350.884 1348.82 343.9 1340.2 343.9C1331.58 343.9 1324.6 350.884 1324.6 359.5C1324.6 368.116 1331.58 375.1 1340.2 375.1Z" fill="#DA1C5C"/>
<path d="M955.8 535.1C964.416 535.1 971.4 528.116 971.4 519.5C971.4 510.884 964.416 503.9 955.8 503.9C947.184 503.9 940.2 510.884 940.2 519.5C940.2 528.116 947.184 535.1 955.8 535.1Z" fill="#DA1C5C"/>
<path d="M1323.6 451.2C1329.51 451.2 1334.3 446.41 1334.3 440.5C1334.3 434.591 1329.51 429.8 1323.6 429.8C1317.69 429.8 1312.9 434.591 1312.9 440.5C1312.9 446.41 1317.69 451.2 1323.6 451.2Z" fill="#FFF200"/>
<path d="M446.6 662.9C452.509 662.9 457.3 658.109 457.3 652.2C457.3 646.291 452.509 641.5 446.6 641.5C440.691 641.5 435.9 646.291 435.9 652.2C435.9 658.109 440.691 662.9 446.6 662.9Z" fill="#FFF200"/>
<path d="M1271.9 507.8C1278.36 507.8 1283.6 502.562 1283.6 496.1C1283.6 489.638 1278.36 484.4 1271.9 484.4C1265.44 484.4 1260.2 489.638 1260.2 496.1C1260.2 502.562 1265.44 507.8 1271.9 507.8Z" fill="#1C75BC"/>
<path d="M1271 607.3C1276.91 607.3 1281.7 602.509 1281.7 596.6C1281.7 590.691 1276.91 585.9 1271 585.9C1265.09 585.9 1260.3 590.691 1260.3 596.6C1260.3 602.509 1265.09 607.3 1271 607.3Z" fill="#EE2A7B"/>
<path d="M1320.7 574.2C1323.96 574.2 1326.6 571.558 1326.6 568.3C1326.6 565.042 1323.96 562.4 1320.7 562.4C1317.44 562.4 1314.8 565.042 1314.8 568.3C1314.8 571.558 1317.44 574.2 1320.7 574.2Z" fill="#EEF2C2"/>
<path d="M1230 568.3C1237.01 568.3 1242.7 562.614 1242.7 555.6C1242.7 548.586 1237.01 542.9 1230 542.9C1222.99 542.9 1217.3 548.586 1217.3 555.6C1217.3 562.614 1222.99 568.3 1230 568.3Z" fill="#F15A29"/>
<path d="M1223.1 679.5C1228.51 679.5 1232.9 675.112 1232.9 669.7C1232.9 664.288 1228.51 659.9 1223.1 659.9C1217.69 659.9 1213.3 664.288 1213.3 669.7C1213.3 675.112 1217.69 679.5 1223.1 679.5Z" fill="#FFF200"/>
<path d="M40.7 17.6001L46 28.3001L57.8 30.0001L49.3 38.4001L51.3 50.1001L40.7 44.6001L30.1 50.1001L32.2 38.4001L23.6 30.0001L35.4 28.3001L40.7 17.6001Z" fill="#1C75BC"/>
<path d="M185.1 125.3L169.5 122.9L158.6 134.5L156.1 118.9L141.8 112.1L155.8 104.9L157.8 89.2L169.1 100.3L184.6 97.3L177.5 111.5L185.1 125.3Z" fill="#FFF200"/>
<path d="M528.5 164.4L512.9 162L502 173.5L499.5 157.9L485.2 151.1L499.2 143.9L501.2 128.2L512.5 139.3L528 136.4L520.9 150.5L528.5 164.4Z" fill="#FFF200"/>
<path d="M247.5 189.7L231.9 181.5L216.3 189.7L219.3 172.4L206.7 160.1L224.1 157.5L231.9 141.7L239.7 157.5L257.2 160.1L244.5 172.4L247.5 189.7Z" fill="#DA1C5C"/>
<path d="M370.5 99.9999L360.6 97.5999L353.1 104.4L352.3 94.2999L343.6 89.1999L352.9 85.2999L355 75.3999L361.6 83.0999L371.7 82.0999L366.4 90.6999L370.5 99.9999Z" fill="#EEF2C2"/>
<path d="M423.1 62.9001L412.1 64.0001L406.8 73.7001L402.3 63.6001L391.5 61.5001L399.7 54.1001L398.3 43.1001L407.9 48.7001L417.9 44.0001L415.6 54.8001L423.1 62.9001Z" fill="#EEF2C2"/>
<path d="M349 170.2L334.5 164.3L321.5 172.9L322.6 157.4L310.4 147.6L325.6 143.9L331.1 129.3L339.3 142.5L354.9 143.2L344.9 155.2L349 170.2Z" fill="#EE2A7B"/>
<path d="M362.7 250.2L346.5 243.8L332 253.4L333.1 236L319.4 225.2L336.3 221L342.4 204.6L351.7 219.3L369.1 220L357.9 233.4L362.7 250.2Z" fill="#F15A29"/>
<path d="M1021.5 646L1005.3 639.5L990.8 649.2L991.9 631.8L978.2 621L995.1 616.7L1001.2 600.4L1010.5 615.1L1027.9 615.8L1016.7 629.2L1021.5 646Z" fill="#F15A29"/>
<path d="M282.7 309.1L263.6 299.7L245.1 310.1L248.1 289.1L232.5 274.6L253.4 271L262.3 251.7L272.2 270.5L293.3 273L278.5 288.2L282.7 309.1Z" fill="#F15A29"/>
<path d="M124.6 404.4L106.1 402L93.6 415.8L90.2 397.5L73.1 389.9L89.5 381L91.4 362.4L105 375.2L123.3 371.3L115.3 388.2L124.6 404.4Z" fill="#FFF200"/>
<path d="M391.9 597.5L373.4 595.1L360.9 609L357.5 590.6L340.4 583.1L356.8 574.1L358.7 555.5L372.3 568.4L390.6 564.5L382.6 581.4L391.9 597.5Z" fill="#FFF200"/>
<path d="M58.3 330.2L48.4 325L38.5 330.1L40.5 319.1L32.6 311.2L43.6 309.7L48.6 299.8L53.5 309.8L64.5 311.5L56.5 319.2L58.3 330.2Z" fill="#EEF2C2"/>
<path d="M185.1 369.2L181.6 368.1L178.7 370.3V366.6L175.7 364.5L179.2 363.4L180.3 359.9L182.4 362.9L186.1 362.8L183.9 365.8L185.1 369.2Z" fill="#EEF2C2"/>
<path d="M142.2 445.3L129.4 443L120.3 452.1L118.6 439.2L107.1 433.3L118.8 427.8L120.8 415L129.7 424.4L142.5 422.4L136.3 433.8L142.2 445.3Z" fill="#1C75BC"/>
<path d="M62.2001 507.8L53.5 504.8L46.2001 510.3L46.3 501.2L38.8 495.9L47.5 493.1L50.3 484.4L55.5 491.9L64.7 491.8L59.2001 499.1L62.2001 507.8Z" fill="#39B54A"/>
<path d="M461.2 221.8L452.5 218.9L445.2 224.4L445.3 215.2L437.8 209.9L446.6 207.2L449.3 198.4L454.6 205.9L463.7 205.8L458.3 213.1L461.2 221.8Z" fill="#39B54A"/>
<path d="M657.6 65.5999L648.9 62.7L641.6 68.1999L641.7 59L634.2 53.7L643 51L645.7 42.2L651 49.7L660.1 49.5999L654.6 56.9L657.6 65.5999Z" fill="#39B54A"/>
<path d="M485.9 114.4L477.2 111.5L469.9 116.9L470 107.8L462.5 102.5L471.2 99.8L474 91L479.3 98.5L488.4 98.4L482.9 105.7L485.9 114.4Z" fill="#39B54A"/>
<path d="M415.6 377.8L407 374.9L399.6 380.4L399.7 371.2L392.3 365.9L401 363.2L403.7 354.4L409 361.9L418.2 361.8L412.7 369.1L415.6 377.8Z" fill="#39B54A"/>
<path d="M960 239.3L951.3 236.3L944 241.8L944.1 232.7L936.6 227.4L945.4 224.6L948.1 215.9L953.4 223.4L962.6 223.3L957.1 230.6L960 239.3Z" fill="#39B54A"/>
<path d="M1037.3 270.9L1028.6 267.9L1021.3 273.4L1021.4 264.3L1013.9 259L1022.7 256.2L1025.4 247.5L1030.7 255L1039.8 254.9L1034.3 262.2L1037.3 270.9Z" fill="#39B54A"/>
<path d="M579.5 40.2999L570.9 37.2999L563.5 42.7999L563.6 33.5999L556.2 28.2999L564.9 25.5999L567.6 16.8999L572.9 24.3999L582.1 24.1999L576.6 31.5999L579.5 40.2999Z" fill="#39B54A"/>
<path d="M181.2 552.7L168.5 547.4L156.9 554.9L158 541.1L147.3 532.4L160.7 529.2L165.7 516.4L172.8 528.1L186.6 528.9L177.6 539.3L181.2 552.7Z" fill="#F15A29"/>
<path d="M315.5 456.7L302.8 451.4L291.2 458.9L292.3 445.2L281.6 436.5L295 433.3L299.9 420.4L307.1 432.2L320.9 432.9L311.9 443.4L315.5 456.7Z" fill="#F15A29"/>
<path d="M99.2 665.8L87.1 655.9L72.1 660.3L77.8 645.7L69 632.7L84.6 633.6L94.2 621.3L98.2 636.4L112.9 641.7L99.7 650.2L99.2 665.8Z" fill="#F15A29"/>
<path d="M1209.5 443.4L1202 439.9L1194.8 444.1L1195.8 435.8L1189.6 430.3L1197.8 428.8L1201.1 421.2L1205.1 428.4L1213.4 429.2L1207.7 435.3L1209.5 443.4Z" fill="#EEF2C2"/>
<path d="M839.2 42.8L831.7 39.2L824.6 43.4L825.6 35.2L819.4 29.7L827.5 28.1L830.8 20.5L834.9 27.8L843.1 28.6L837.4 34.7L839.2 42.8Z" fill="#EEF2C2"/>
<path d="M1232.9 281.4H1224.2L1219.2 288.5L1216.6 280.2L1208.3 277.7L1215.3 272.7L1215.2 264L1222.2 269.1L1230.4 266.3L1227.7 274.5L1232.9 281.4Z" fill="#EEF2C2"/>
<path d="M1020.2 105.8L1000.6 98.1999L983.1 110.1L984.3 88.9999L967.6 76.0999L988 70.6999L995.2 50.8999L1006.6 68.5999L1027.7 69.1999L1014.3 85.5999L1020.2 105.8Z" fill="#FFF200"/>
<path d="M1067.1 379.7L1047.4 372.1L1030 384L1031.2 362.9L1014.5 350L1034.9 344.6L1042 324.8L1053.4 342.5L1074.5 343.1L1061.2 359.5L1067.1 379.7Z" fill="#FFF200"/>
<path d="M918.8 43.4L910.7 41.6L904.6 47.3L903.8 39L896.5 35L904.1 31.7L905.7 23.5L911.2 29.7L919.4 28.7L915.2 35.9L918.8 43.4Z" fill="#DA1C5C"/>
<path d="M485.6 57.4L466.5 48L448 58.4L451 37.3L435.4 22.9L456.3 19.3L465.2 0L475.1 18.8L496.2 21.3L481.4 36.5L485.6 57.4Z" fill="#F15A29"/>
<path d="M1059.2 150.7L1054 148.9L1049.6 152.2L1049.7 146.7L1045.2 143.6L1050.5 141.9L1052.1 136.7L1055.3 141.2L1060.8 141.1L1057.5 145.5L1059.2 150.7Z" fill="#1C75BC"/>
<path d="M1186.1 68.8L1176.2 66.4L1168.7 73.0999L1167.9 63.0999L1159.2 58L1168.5 54.0999L1170.6 44.2L1177.2 51.9L1187.3 50.9L1182 59.5L1186.1 68.8Z" fill="#EEF2C2"/>
<path d="M1275.8 53.1L1259.6 46.7L1245.1 56.4L1246.3 39L1232.6 28.2L1249.5 23.9L1255.5 7.5L1264.8 22.3L1282.3 23L1271.1 36.4L1275.8 53.1Z" fill="#F15A29"/>
<path d="M886.8 127L870.6 120.5L856.1 130.2L857.3 112.8L843.6 102L860.5 97.7L866.5 81.3L875.8 96.1L893.2 96.8L882.1 110.2L886.8 127Z" fill="#F15A29"/>
<path d="M1309 150.7L1299.2 145.4L1289.3 150.5L1291.2 139.6L1283.3 131.7L1294.4 130.2L1299.4 120.3L1304.2 130.3L1315.2 132L1307.2 139.7L1309 150.7Z" fill="#EEF2C2"/>
<path d="M1156.9 196.9L1147 191.7L1137.1 196.8L1139.1 185.8L1131.2 178L1142.2 176.5L1147.3 166.5L1152.1 176.5L1163.1 178.2L1155.1 185.9L1156.9 196.9Z" fill="#EEF2C2"/>
<path d="M1357.8 215.1L1344.5 208.7L1331.6 216L1333.7 201.3L1322.7 191.4L1337.3 188.8L1343.4 175.3L1350.4 188.3L1365 190L1354.8 200.6L1357.8 215.1Z" fill="#DA1C5C"/>
<path d="M1043.2 511.1L1030 504.7L1017.1 512L1019.1 497.4L1008.2 487.4L1022.8 484.8L1028.9 471.3L1035.8 484.4L1050.5 486L1040.3 496.7L1043.2 511.1Z" fill="#DA1C5C"/>
<path d="M1350 293.1L1340.7 286.1L1329.7 289.8L1333.5 278.8L1326.7 269.5L1338.3 269.7L1345 260.3L1348.4 271.4L1359.4 274.9L1349.9 281.6L1350 293.1Z" fill="#FFF200"/>
<path d="M235.3 789.9L226.1 782.9L215.1 786.5L218.9 775.6L212 766.3L223.6 766.5L230.4 757.1L233.7 768.2L244.8 771.7L235.2 778.3L235.3 789.9Z" fill="#FFF200"/>
<path d="M885.6 624.7L876.4 617.7L865.4 621.4L869.2 610.4L862.4 601.1L873.9 601.3L880.7 591.9L884.1 603L895.1 606.5L885.6 613.1V624.7Z" fill="#FFF200"/>
<path d="M1218.1 378.7L1208.9 371.7L1197.9 375.3L1201.7 364.4L1194.8 355L1206.4 355.3L1213.2 345.9L1216.5 356.9L1227.6 360.5L1218.1 367.1V378.7Z" fill="#FFF200"/>
<path d="M1139.2 277.5L1128.9 268.2L1115.3 271.5L1121 258.7L1113.7 246.8L1127.5 248.3L1136.6 237.7L1139.5 251.3L1152.4 256.6L1140.3 263.6L1139.2 277.5Z" fill="#FFF200"/>
<path d="M1197.8 566.3L1188.5 559.3L1177.5 563L1181.3 552L1174.5 542.7L1186.1 542.9L1192.8 533.5L1196.2 544.6L1207.2 548.1L1197.7 554.7L1197.8 566.3Z" fill="#1C75BC"/>
<path d="M1140.8 806.6L1131.6 799.6L1120.6 803.2L1124.4 792.3L1117.5 782.9L1129.1 783.2L1135.9 773.8L1139.2 784.9L1150.3 788.4L1140.8 795V806.6Z" fill="#1C75BC"/>
<path d="M1340.2 498L1333.9 493.9L1326.9 496.9L1328.8 489.5L1323.9 483.8L1331.4 483.4L1335.4 476.9L1338.1 484L1345.5 485.7L1339.6 490.5L1340.2 498Z" fill="#EEF2C2"/>
<path d="M1340.2 636.6L1333.3 634.2L1327.4 638.6L1327.5 631.3L1321.5 627L1328.5 624.9L1330.7 617.9L1334.9 623.8L1342.2 623.7L1337.9 629.6L1340.2 636.6Z" fill="#39B54A"/>
<path d="M231.9 654.1L218.6 644.8L203.4 650.4L208.2 634.9L198.1 622.2L214.4 621.9L223.4 608.4L228.6 623.8L244.3 628.2L231.3 637.9L231.9 654.1Z" fill="#FFF200"/>
<path d="M155.8 704.9L146.6 697.9L135.6 701.5L139.4 690.5L132.5 681.2L144.1 681.4L150.9 672L154.2 683.1L165.3 686.6L155.8 693.3V704.9Z" fill="#1C75BC"/>
<path d="M1287.5 730.2L1282.3 725.6L1275.6 727.2L1278.4 720.8L1274.7 714.9L1281.7 715.6L1286.2 710.3L1287.7 717.1L1294.1 719.8L1288.1 723.3L1287.5 730.2Z" fill="#1C75BC"/>
</svg>
