<svg width="316" height="53" viewBox="0 0 316 53" fill="none" xmlns="http://www.w3.org/2000/svg">
<rect x="54" width="262" height="53" rx="10" fill="#4FC4A8"/>
<rect width="272" height="53" rx="10" fill="#F5EBEC"/>
<path d="M295.97 37.26C295.418 37.26 294.89 37.092 294.386 36.756C293.882 36.444 293.462 36.036 293.126 35.532C292.814 35.028 292.658 34.524 292.658 34.02C292.658 33.444 292.898 32.832 293.378 32.184C293.858 31.536 294.422 30.9 295.07 30.276C295.742 29.628 296.33 29.076 296.834 28.62H281.966C280.598 28.62 279.626 28.512 279.05 28.296C278.474 28.08 278.018 27.72 277.682 27.216C277.346 26.736 277.178 26.064 277.178 25.2C277.178 24.336 277.334 23.664 277.646 23.184C277.982 22.704 278.438 22.344 279.014 22.104C279.59 21.888 280.574 21.78 281.966 21.78H296.834L295.07 20.088C294.086 19.128 293.438 18.396 293.126 17.892C292.814 17.364 292.658 16.86 292.658 16.38C292.658 15.876 292.814 15.372 293.126 14.868C293.438 14.364 293.846 13.956 294.35 13.644C294.878 13.308 295.418 13.14 295.97 13.14C296.45 13.14 296.966 13.296 297.518 13.608C298.07 13.896 298.718 14.4 299.462 15.12L309.83 25.2L299.678 35.064C298.814 35.88 298.106 36.444 297.554 36.756C297.002 37.092 296.474 37.26 295.97 37.26Z" fill="white"/>
</svg>
