<svg width="46" height="58" viewBox="0 0 46 58" fill="none" xmlns="http://www.w3.org/2000/svg">
<circle cx="23" cy="23" r="21" stroke="white" stroke-width="2"/>
<path d="M19.9455 23.112C22.4175 22.536 24.3015 21.816 25.5975 20.952C26.8935 20.064 27.5415 18.948 27.5415 17.604C27.5415 16.548 27.0735 15.72 26.1375 15.12C25.2015 14.496 24.1095 14.184 22.8615 14.184C21.4935 14.184 20.2695 14.532 19.1895 15.228C18.1095 15.9 17.1855 16.812 16.4175 17.964L13.7175 15.48C14.8455 13.944 16.2135 12.732 17.8215 11.844C19.4535 10.932 21.2535 10.476 23.2215 10.476C24.8775 10.476 26.3535 10.788 27.6495 11.412C28.9695 12.012 30.0015 12.852 30.7455 13.932C31.5135 15.012 31.8975 16.236 31.8975 17.604C31.8975 18.78 31.5375 19.86 30.8175 20.844C30.1215 21.828 29.1975 22.692 28.0455 23.436C26.9175 24.18 25.7175 24.756 24.4455 25.164L23.7975 28.404H20.8815L19.9455 23.112ZM22.3575 36.396C21.3495 36.396 20.5935 36.156 20.0895 35.676C19.6095 35.172 19.3695 34.512 19.3695 33.696C19.3695 33 19.6095 32.376 20.0895 31.824C20.5935 31.272 21.3495 30.996 22.3575 30.996C23.3655 30.996 24.1095 31.248 24.5895 31.752C25.0935 32.232 25.3455 32.88 25.3455 33.696C25.3455 34.368 25.0935 34.992 24.5895 35.568C24.1095 36.12 23.3655 36.396 22.3575 36.396Z" fill="white"/>
<path d="M19.9455 23.112L19.832 22.625L19.3706 22.7326L19.4531 23.1991L19.9455 23.112ZM25.5975 20.952L25.8749 21.3681L25.8801 21.3645L25.5975 20.952ZM26.1375 15.12L25.8601 15.5361L25.8677 15.5409L26.1375 15.12ZM19.1895 15.228L19.4537 15.6526L19.4603 15.6483L19.1895 15.228ZM16.4175 17.964L16.079 18.332L16.5092 18.7278L16.8335 18.2413L16.4175 17.964ZM13.7175 15.48L13.3145 15.184L13.0495 15.5449L13.379 15.848L13.7175 15.48ZM17.8215 11.844L18.0632 12.2817L18.0654 12.2805L17.8215 11.844ZM27.6495 11.412L27.4325 11.8626L27.4426 11.8672L27.6495 11.412ZM30.7455 13.932L30.3337 14.2157L30.338 14.2218L30.7455 13.932ZM30.8175 20.844L30.4139 20.5487L30.4093 20.5553L30.8175 20.844ZM28.0455 23.436L27.7742 23.016L27.7702 23.0186L28.0455 23.436ZM24.4455 25.164L24.2928 24.6879L24.0128 24.7777L23.9552 25.0659L24.4455 25.164ZM23.7975 28.404V28.904H24.2074L24.2878 28.5021L23.7975 28.404ZM20.8815 28.404L20.3891 28.4911L20.4622 28.904H20.8815V28.404ZM20.0895 35.676L19.7274 36.0208L19.7358 36.0297L19.7447 36.0381L20.0895 35.676ZM20.0895 31.824L19.7201 31.4868L19.7122 31.4959L20.0895 31.824ZM24.5895 31.752L24.2274 32.0968L24.2358 32.1057L24.2447 32.1141L24.5895 31.752ZM24.5895 35.568L24.2132 35.2387L24.2122 35.2399L24.5895 35.568ZM20.059 23.599C22.5573 23.0168 24.5074 22.2797 25.8748 21.368L25.3201 20.536C24.0956 21.3523 22.2777 22.0552 19.832 22.625L20.059 23.599ZM25.8801 21.3645C27.2857 20.4014 28.0415 19.1426 28.0415 17.604H27.0415C27.0415 18.7534 26.5013 19.7266 25.3149 20.5395L25.8801 21.3645ZM28.0415 17.604C28.0415 16.3671 27.4776 15.3852 26.4073 14.6991L25.8677 15.5409C26.6693 16.0548 27.0415 16.7289 27.0415 17.604H28.0415ZM26.4148 14.704C25.3878 14.0193 24.197 13.684 22.8615 13.684V14.684C24.022 14.684 25.0151 14.9727 25.8601 15.536L26.4148 14.704ZM22.8615 13.684C21.4039 13.684 20.0847 14.0563 18.9186 14.8077L19.4603 15.6483C20.4543 15.0077 21.583 14.684 22.8615 14.684V13.684ZM18.9253 14.8035C17.7796 15.5164 16.8055 16.4806 16.0015 17.6866L16.8335 18.2413C17.5655 17.1434 18.4394 16.2836 19.4536 15.6525L18.9253 14.8035ZM16.756 17.596L14.056 15.112L13.379 15.848L16.079 18.332L16.756 17.596ZM14.1205 15.776C15.2073 14.2961 16.521 13.1334 18.0632 12.2817L17.5798 11.4063C15.906 12.3306 14.4837 13.5919 13.3145 15.184L14.1205 15.776ZM18.0654 12.2805C19.6189 11.4123 21.3342 10.976 23.2215 10.976V9.976C21.1728 9.976 19.2881 10.4517 17.5776 11.4075L18.0654 12.2805ZM23.2215 10.976C24.8137 10.976 26.2138 11.2757 27.4326 11.8625L27.8664 10.9615C26.4932 10.3003 24.9412 9.976 23.2215 9.976V10.976ZM27.4426 11.8672C28.689 12.4337 29.6465 13.2181 30.3337 14.2157L31.1572 13.6483C30.3565 12.4859 29.25 11.5903 27.8564 10.9568L27.4426 11.8672ZM30.338 14.2218C31.0438 15.2143 31.3975 16.3363 31.3975 17.604H32.3975C32.3975 16.1357 31.9832 14.8097 31.153 13.6422L30.338 14.2218ZM31.3975 17.604C31.3975 18.6697 31.0737 19.6471 30.414 20.5487L31.221 21.1393C32.0012 20.0729 32.3975 18.8903 32.3975 17.604H31.3975ZM30.4093 20.5553C29.7549 21.4805 28.8799 22.3019 27.7742 23.016L28.3167 23.856C29.515 23.0821 30.4881 22.1755 31.2257 21.1327L30.4093 20.5553ZM27.7702 23.0186C26.6797 23.7378 25.5209 24.294 24.2928 24.6879L24.5982 25.6401C25.914 25.218 27.1552 24.6222 28.3208 23.8534L27.7702 23.0186ZM23.9552 25.0659L23.3072 28.3059L24.2878 28.5021L24.9358 25.2621L23.9552 25.0659ZM23.7975 27.904H20.8815V28.904H23.7975V27.904ZM21.3738 28.3169L20.4378 23.0249L19.4531 23.1991L20.3891 28.4911L21.3738 28.3169ZM22.3575 35.896C21.4206 35.896 20.8108 35.6725 20.4343 35.3139L19.7447 36.0381C20.3761 36.6395 21.2783 36.896 22.3575 36.896V35.896ZM20.4516 35.3312C20.0752 34.936 19.8695 34.4073 19.8695 33.696H18.8695C18.8695 34.6167 19.1438 35.408 19.7274 36.0208L20.4516 35.3312ZM19.8695 33.696C19.8695 33.1271 20.0615 32.6182 20.4668 32.1521L19.7122 31.4959C19.1575 32.1338 18.8695 32.8729 18.8695 33.696H19.8695ZM20.4587 32.1611C20.8383 31.7454 21.4389 31.496 22.3575 31.496V30.496C21.2601 30.496 20.3487 30.7986 19.7202 31.4869L20.4587 32.1611ZM22.3575 31.496C23.2906 31.496 23.8773 31.7292 24.2274 32.0968L24.9516 31.4072C24.3416 30.7667 23.4404 30.496 22.3575 30.496V31.496ZM24.2447 32.1141C24.6324 32.4834 24.8455 32.9912 24.8455 33.696H25.8455C25.8455 32.7688 25.5545 31.9806 24.9343 31.3899L24.2447 32.1141ZM24.8455 33.696C24.8455 34.2301 24.6493 34.7404 24.2132 35.2387L24.9658 35.8973C25.5377 35.2436 25.8455 34.5059 25.8455 33.696H24.8455ZM24.2122 35.2399C23.8591 35.6459 23.2779 35.896 22.3575 35.896V36.896C23.4531 36.896 24.3599 36.5941 24.9668 35.8961L24.2122 35.2399Z" fill="#1A2A37"/>
<path d="M18.2054 55V51.8843C18.2054 51.4917 18.116 51.1987 17.9373 51.0054C17.7586 50.812 17.4788 50.7153 17.0979 50.7153C16.5911 50.7153 16.2205 50.853 15.9861 51.1284C15.7547 51.4038 15.639 51.855 15.639 52.4819V55H14.9095V48.1621H15.639V50.2319C15.639 50.481 15.6272 50.6875 15.6038 50.8516H15.6478C15.7913 50.6201 15.9949 50.4385 16.2586 50.3066C16.5252 50.1719 16.8284 50.1045 17.1683 50.1045C17.7571 50.1045 18.198 50.2451 18.491 50.5264C18.7869 50.8047 18.9349 51.2485 18.9349 51.8579V55H18.2054ZM22.9225 55.0879C22.2105 55.0879 21.648 54.8711 21.235 54.4375C20.8248 54.0039 20.6197 53.4019 20.6197 52.6313C20.6197 51.855 20.8102 51.2383 21.191 50.7812C21.5748 50.3242 22.089 50.0957 22.7335 50.0957C23.337 50.0957 23.8146 50.2949 24.1661 50.6934C24.5177 51.0889 24.6935 51.6118 24.6935 52.2622V52.7236H21.3756C21.3902 53.2891 21.5323 53.7183 21.8019 54.0112C22.0743 54.3042 22.4566 54.4507 22.9488 54.4507C23.4674 54.4507 23.9801 54.3423 24.4869 54.1255V54.7759C24.2291 54.8872 23.9845 54.9663 23.753 55.0132C23.5245 55.063 23.2477 55.0879 22.9225 55.0879ZM22.7247 50.7065C22.338 50.7065 22.0289 50.8325 21.7975 51.0845C21.5689 51.3364 21.4342 51.6851 21.3932 52.1304H23.9112C23.9112 51.6704 23.8087 51.3188 23.6036 51.0757C23.3985 50.8296 23.1056 50.7065 22.7247 50.7065ZM27.121 55H26.3915V48.1621H27.121V55ZM31.3591 55.0879C31.0456 55.0879 30.7585 55.0308 30.4978 54.9165C30.2399 54.7993 30.0231 54.6206 29.8474 54.3804H29.7946C29.8298 54.6616 29.8474 54.9282 29.8474 55.1802V57.1621H29.1179V50.1836H29.7111L29.8122 50.8428H29.8474C30.0349 50.5791 30.2531 50.3887 30.5021 50.2715C30.7512 50.1543 31.0368 50.0957 31.3591 50.0957C31.9978 50.0957 32.4899 50.314 32.8356 50.7505C33.1843 51.187 33.3586 51.7993 33.3586 52.5874C33.3586 53.3784 33.1813 53.9937 32.8269 54.4331C32.4753 54.8696 31.986 55.0879 31.3591 55.0879ZM31.2536 50.7153C30.7614 50.7153 30.4055 50.8516 30.1857 51.124C29.966 51.3965 29.8532 51.8301 29.8474 52.4248V52.5874C29.8474 53.2642 29.9602 53.749 30.1857 54.042C30.4113 54.332 30.7731 54.4771 31.2712 54.4771C31.6872 54.4771 32.0124 54.3086 32.2468 53.9717C32.4841 53.6348 32.6027 53.1704 32.6027 52.5786C32.6027 51.978 32.4841 51.5181 32.2468 51.1987C32.0124 50.8765 31.6813 50.7153 31.2536 50.7153Z" fill="white"/>
</svg>
