<svg width="44" height="57" viewBox="0 0 44 57" fill="none" xmlns="http://www.w3.org/2000/svg">
<path d="M8.46215 12.0543C8.29417 12.1177 8.16352 12.226 8.07766 12.3865C8.01794 12.4873 8.0142 12.8942 8.00301 17.0153C7.99554 19.4976 8.00301 21.6179 8.0142 21.7261C8.06646 22.1554 8.40242 22.3981 8.83544 22.3197C8.98475 22.2898 9.21246 22.1069 9.27591 21.9651C9.30951 21.8941 9.32444 20.7108 9.33937 17.6125L9.35804 13.357L13.0872 13.3459C16.6185 13.3384 16.8387 13.3421 17.2493 13.4093C18.1639 13.5624 19.0523 13.973 19.8287 14.6076C20.1647 14.8801 20.7433 15.4736 20.9785 15.7797L21.1726 16.0373V22.6407C21.1726 28.5722 21.1651 29.2442 21.1129 29.2665C21.083 29.2777 21.0195 29.2553 20.9747 29.2106C20.6014 28.8709 19.4704 28.3147 18.4476 27.975C17.8354 27.7697 16.8648 27.5233 16.1705 27.3964C14.3638 27.0716 12.6542 26.9074 10.6085 26.8663C9.92917 26.8514 9.41403 26.8253 9.3879 26.8029C9.35057 26.7767 9.33937 26.5154 9.33564 25.7353C9.33564 25.0335 9.32071 24.6639 9.28711 24.5818C9.22739 24.4063 9.03328 24.2234 8.85037 24.1637C8.58533 24.0741 8.24564 24.2122 8.08513 24.4735C8.01794 24.5893 8.0142 24.6975 8.0142 28.0683V31.5399L8.11872 31.7004C8.18592 31.8012 8.28297 31.887 8.38003 31.9318C8.53307 31.999 8.85037 32.0027 21.8445 31.999H35.1522L35.3202 31.9169C35.4433 31.8534 35.5143 31.7788 35.5889 31.6444L35.6934 31.4615V22.0173C35.6934 12.9128 35.6897 12.5694 35.6225 12.4238C35.5367 12.2372 35.4209 12.1327 35.2082 12.0543C35.0551 11.9983 34.6968 11.9946 30.7847 12.0057C27.2124 12.0207 26.4807 12.0319 26.2306 12.0767C25.3721 12.2372 24.8271 12.435 24.0469 12.8568C23.5056 13.1517 22.8038 13.7117 22.229 14.3052L21.8482 14.7009L21.4227 14.2679C20.1983 13.0286 18.9627 12.3492 17.421 12.0767C16.9283 11.9908 8.69359 11.9684 8.46215 12.0543ZM34.3421 20.0202C34.3459 23.6859 34.3421 26.717 34.3309 26.7618C34.3123 26.8402 34.2899 26.8402 33.1103 26.8663C30.8332 26.9111 28.4778 27.1575 26.9772 27.5084C25.0958 27.9414 23.9722 28.3707 22.9532 29.0426C22.7255 29.1919 22.5351 29.3076 22.5276 29.3001C22.5201 29.2964 22.5164 26.3138 22.5164 22.6743C22.5164 17.7842 22.5276 16.0373 22.5612 15.9775C22.6433 15.8207 23.0763 15.3243 23.4123 15.007C23.7557 14.6785 24.1887 14.3313 24.4948 14.141C24.7076 14.0066 25.3683 13.6743 25.4243 13.6743C25.4467 13.6743 25.5176 13.6519 25.5848 13.6221C25.8051 13.5325 25.9842 13.484 26.3725 13.413C26.7271 13.3496 27.0145 13.3459 30.5421 13.3496L34.3309 13.357L34.3421 20.0202ZM11.5231 28.2325C12.516 28.2699 13.1245 28.3147 13.8188 28.4005C14.054 28.4304 14.3489 28.464 14.4721 28.4752C14.5953 28.4864 14.7819 28.5125 14.8827 28.5312C14.9872 28.5498 15.2448 28.5946 15.4613 28.6282C15.6778 28.6618 16.0473 28.7327 16.2825 28.7813C16.5177 28.8335 16.7865 28.8895 16.8798 28.9082C16.9731 28.9269 17.0888 28.9567 17.1411 28.9754C17.1933 28.994 17.3427 29.0388 17.477 29.0724C18.0743 29.233 19.0299 29.5988 19.4741 29.8414C20.0788 30.1699 20.6089 30.5768 20.5529 30.6664C20.5417 30.6813 18.0332 30.6962 14.9797 30.6962C10.7131 30.6962 9.41776 30.685 9.38417 30.6514C9.35057 30.6178 9.33937 30.2931 9.33937 29.4196C9.33937 28.3333 9.34311 28.2325 9.40656 28.1989C9.47002 28.1579 9.54841 28.1616 11.5231 28.2325ZM34.2526 28.1952L34.3496 28.2325V29.442C34.3496 30.5096 34.3421 30.6552 34.2899 30.6738C34.1854 30.7149 23.2107 30.7 23.151 30.6589C22.983 30.5432 24.2746 29.722 25.0548 29.4457C25.5998 29.2516 26.2381 29.05 26.5292 28.9829C26.7159 28.9381 26.9249 28.8858 26.9959 28.8671C27.1377 28.8298 27.7312 28.7141 28.209 28.6245C28.7802 28.5237 29.6985 28.408 30.7474 28.3072C31.1095 28.2736 32.528 28.2101 33.4724 28.184C33.659 28.1803 33.8867 28.1728 33.9838 28.1654C34.0771 28.1616 34.2003 28.1728 34.2526 28.1952Z" fill="white"/>
<path d="M26.5815 15.6528C26.4061 15.7461 26.2642 15.9179 26.2082 16.1008C26.1261 16.3733 26.2903 16.698 26.589 16.8473C26.7271 16.9183 26.8241 16.922 29.1796 16.922C31.55 16.922 31.6321 16.9183 31.7739 16.8473C31.8523 16.8063 31.9643 16.713 32.024 16.6346C32.1136 16.5188 32.1285 16.4666 32.1285 16.2501C32.1285 16.0336 32.1136 15.985 32.0203 15.8619C31.8001 15.567 31.912 15.5782 29.1609 15.5819C26.8241 15.5819 26.7084 15.5856 26.5815 15.6528Z" fill="white"/>
<path d="M26.5441 19.6208C26.3575 19.7178 26.1746 19.9978 26.1746 20.1882C26.1746 20.3711 26.3052 20.6025 26.4769 20.7257L26.6337 20.8414H29.1683H31.6992L31.8448 20.7518C32.1808 20.5391 32.2442 20.0351 31.9717 19.7477C31.7627 19.5275 31.8373 19.5349 29.1609 19.5349H26.7084L26.5441 19.6208Z" fill="white"/>
<path d="M26.6636 23.5104C26.574 23.5366 26.462 23.6 26.4097 23.6486C26.294 23.7531 26.1783 23.9957 26.1746 24.1301C26.1746 24.313 26.3164 24.5706 26.4807 24.6788L26.6374 24.7796L29.0451 24.7908C30.3703 24.7983 31.5275 24.7908 31.6171 24.7796C31.856 24.746 32.0949 24.5071 32.1285 24.2645C32.1845 23.8912 31.9717 23.5702 31.6208 23.4955C31.3222 23.4321 26.8726 23.4433 26.6636 23.5104Z" fill="white"/>
<path d="M11.9524 15.6379C11.6911 15.7499 11.5417 15.9738 11.5417 16.2538C11.5417 16.5226 11.6649 16.7204 11.9225 16.8511C12.0532 16.9183 12.1763 16.922 14.5094 16.922C16.8424 16.922 16.9656 16.9183 17.0963 16.8511C17.3538 16.7204 17.477 16.5226 17.477 16.2501C17.477 15.9776 17.3538 15.7797 17.0963 15.6491C16.9656 15.5819 16.8424 15.5782 14.5206 15.5782C12.4264 15.5819 12.0644 15.5894 11.9524 15.6379Z" fill="white"/>
<path d="M11.9449 19.5872C11.4634 19.8 11.3999 20.4719 11.8404 20.7481L11.9897 20.8414H14.5206H17.0552L17.2046 20.7332C17.4061 20.5876 17.4883 20.401 17.4696 20.1359C17.4547 19.9007 17.3837 19.7813 17.1822 19.6432L17.0515 19.5536L14.5505 19.5461C12.6579 19.5424 12.0196 19.5499 11.9449 19.5872Z" fill="white"/>
<path d="M12.0494 23.4956C11.482 23.6299 11.3551 24.4064 11.859 24.7125C11.9635 24.7759 12.1091 24.7797 14.5093 24.7797C16.9544 24.7797 17.0514 24.7759 17.1671 24.7087C17.5106 24.4997 17.589 23.9995 17.3239 23.6971C17.1111 23.4545 17.1037 23.4545 14.5131 23.4582C13.2364 23.462 12.1315 23.4769 12.0494 23.4956Z" fill="white"/>
<circle cx="22" cy="22" r="21" stroke="white" stroke-width="2"/>
<path d="M11.8319 54H11.1024V47.1621H11.8319V54ZM15.8635 54.0879C15.1516 54.0879 14.5891 53.8711 14.176 53.4375C13.7658 53.0039 13.5607 52.4019 13.5607 51.6313C13.5607 50.855 13.7512 50.2383 14.132 49.7812C14.5158 49.3242 15.03 49.0957 15.6745 49.0957C16.278 49.0957 16.7556 49.2949 17.1071 49.6934C17.4587 50.0889 17.6345 50.6118 17.6345 51.2622V51.7236H14.3166C14.3313 52.2891 14.4733 52.7183 14.7429 53.0112C15.0153 53.3042 15.3977 53.4507 15.8898 53.4507C16.4084 53.4507 16.9211 53.3423 17.4279 53.1255V53.7759C17.1701 53.8872 16.9255 53.9663 16.694 54.0132C16.4655 54.063 16.1887 54.0879 15.8635 54.0879ZM15.6657 49.7065C15.279 49.7065 14.9699 49.8325 14.7385 50.0845C14.51 50.3364 14.3752 50.6851 14.3342 51.1304H16.8522C16.8522 50.6704 16.7497 50.3188 16.5446 50.0757C16.3396 49.8296 16.0466 49.7065 15.6657 49.7065ZM22.2944 54L22.1494 53.3145H22.1143C21.874 53.6162 21.6338 53.8213 21.3936 53.9297C21.1562 54.0352 20.8589 54.0879 20.5015 54.0879C20.0239 54.0879 19.6489 53.9648 19.3765 53.7188C19.1069 53.4727 18.9722 53.1226 18.9722 52.6685C18.9722 51.6958 19.75 51.186 21.3057 51.1392L22.123 51.1128V50.814C22.123 50.436 22.041 50.1577 21.877 49.979C21.7158 49.7974 21.4565 49.7065 21.0991 49.7065C20.6978 49.7065 20.2437 49.8296 19.7368 50.0757L19.5127 49.5176C19.75 49.3887 20.0093 49.2876 20.2905 49.2144C20.5747 49.1411 20.8589 49.1045 21.1431 49.1045C21.7173 49.1045 22.1421 49.2319 22.4175 49.4868C22.6958 49.7417 22.835 50.1504 22.835 50.7129V54H22.2944ZM20.6465 53.4858C21.1006 53.4858 21.4565 53.3613 21.7144 53.1123C21.9751 52.8633 22.1055 52.5146 22.1055 52.0664V51.6313L21.376 51.6621C20.7959 51.6826 20.377 51.7734 20.1191 51.9346C19.8643 52.0928 19.7368 52.3403 19.7368 52.6772C19.7368 52.9409 19.8159 53.1416 19.9741 53.2793C20.1353 53.417 20.3594 53.4858 20.6465 53.4858ZM26.9896 49.0957C27.2034 49.0957 27.3953 49.1133 27.5652 49.1484L27.4642 49.8252C27.2649 49.7812 27.0892 49.7593 26.9368 49.7593C26.5472 49.7593 26.2132 49.9175 25.9349 50.2339C25.6595 50.5503 25.5218 50.9443 25.5218 51.416V54H24.7923V49.1836H25.3943L25.4778 50.0757H25.513C25.6917 49.7622 25.907 49.5205 26.159 49.3506C26.4109 49.1807 26.6878 49.0957 26.9896 49.0957ZM32.212 54V50.8843C32.212 50.4917 32.1227 50.1987 31.9439 50.0054C31.7652 49.812 31.4854 49.7153 31.1046 49.7153C30.6007 49.7153 30.2315 49.8516 29.9972 50.124C29.7628 50.3965 29.6456 50.8462 29.6456 51.4731V54H28.9161V49.1836H29.5094L29.628 49.8428H29.6632C29.8126 49.6055 30.0221 49.4224 30.2916 49.2935C30.5611 49.1616 30.8614 49.0957 31.1925 49.0957C31.7726 49.0957 32.2091 49.2363 32.5021 49.5176C32.795 49.7959 32.9415 50.2427 32.9415 50.8579V54H32.212Z" fill="white"/>
</svg>
