<svg width="102" height="36" viewBox="0 0 102 36" fill="none" xmlns="http://www.w3.org/2000/svg">
<path d="M92 17.7059C92 20.6297 89.7614 23 87 23C84.2386 23 82 20.6471 82 17.7059C82 14.782 84.2386 13 87 13C89.7614 13 92 14.782 92 17.7059Z" fill="#B55C5C"/>
<path d="M55 17.7059C55 20.6297 52.7614 23 50 23C47.2386 23 45 20.6471 45 17.7059C45 14.782 47.2386 13 50 13C52.7614 13 55 14.782 55 17.7059Z" fill="#A85CB5"/>
<path d="M8.27456 24V6.24H10.7466V24H8.27456ZM18.4596 8.664C17.8996 8.664 17.4836 8.52 17.2116 8.232C16.9396 7.944 16.8036 7.568 16.8036 7.104C16.8036 6.704 16.9396 6.344 17.2116 6.024C17.4836 5.704 17.8996 5.544 18.4596 5.544C19.0196 5.544 19.4356 5.688 19.7076 5.976C19.9796 6.264 20.1156 6.64 20.1156 7.104C20.1156 7.504 19.9796 7.864 19.7076 8.184C19.4356 8.504 19.0196 8.664 18.4596 8.664ZM19.7076 24H17.2356V11.4H19.7076V24ZM33.2396 11.136C34.4556 11.136 35.4236 11.376 36.1436 11.856C36.8796 12.336 37.4076 12.976 37.7276 13.776C38.0636 14.56 38.2316 15.44 38.2316 16.416V24H35.7596V16.68C35.7596 15.72 35.4876 14.928 34.9436 14.304C34.3996 13.68 33.5916 13.384 32.5196 13.416C31.7676 13.416 31.0956 13.584 30.5036 13.92C29.9276 14.24 29.4716 14.656 29.1356 15.168C28.7996 15.68 28.6316 16.208 28.6316 16.752V24H26.1596V11.4H28.6316V13.512C29.1116 12.888 29.7516 12.336 30.5516 11.856C31.3516 11.376 32.2476 11.136 33.2396 11.136ZM46.0483 26.04C46.5443 26.36 47.1843 26.648 47.9683 26.904C48.7523 27.176 49.6083 27.312 50.5363 27.312C51.8643 27.312 52.9123 26.96 53.6803 26.256C54.4643 25.552 54.8563 24.512 54.8563 23.136V21.912C54.6003 22.296 54.2163 22.672 53.7043 23.04C53.2083 23.392 52.6243 23.68 51.9523 23.904C51.2803 24.128 50.5683 24.24 49.8163 24.24C48.5203 24.24 47.3683 23.96 46.3603 23.4C45.3683 22.84 44.5843 22.064 44.0083 21.072C43.4323 20.08 43.1443 18.952 43.1443 17.688C43.1443 16.408 43.4403 15.28 44.0323 14.304C44.6243 13.312 45.4243 12.536 46.4323 11.976C47.4563 11.416 48.6243 11.136 49.9363 11.136C51.0403 11.136 52.0243 11.352 52.8883 11.784C53.7683 12.216 54.4243 12.68 54.8563 13.176V11.4H57.3283V22.848C57.3283 24.416 57.0083 25.688 56.3683 26.664C55.7283 27.64 54.8883 28.36 53.8483 28.824C52.8243 29.288 51.7203 29.52 50.5363 29.52C49.4003 29.52 48.3603 29.376 47.4163 29.088C46.4723 28.8 45.7203 28.44 45.1603 28.008L46.0483 26.04ZM50.3683 13.392C49.4563 13.392 48.6403 13.584 47.9203 13.968C47.2163 14.336 46.6643 14.848 46.2643 15.504C45.8643 16.144 45.6643 16.872 45.6643 17.688C45.6643 18.504 45.8643 19.232 46.2643 19.872C46.6643 20.512 47.2163 21.024 47.9203 21.408C48.6403 21.776 49.4563 21.96 50.3683 21.96C51.2643 21.96 52.0563 21.776 52.7443 21.408C53.4323 21.04 53.9683 20.536 54.3523 19.896C54.7523 19.24 54.9523 18.504 54.9523 17.688C54.9523 16.856 54.7523 16.12 54.3523 15.48C53.9683 14.84 53.4323 14.336 52.7443 13.968C52.0563 13.584 51.2643 13.392 50.3683 13.392ZM72.7898 18.312V11.4H75.2618V24H72.7898V21.888C72.3738 22.496 71.7498 23.04 70.9178 23.52C70.1018 24 69.1098 24.24 67.9418 24.24C66.4858 24.24 65.3018 23.744 64.3898 22.752C63.4938 21.744 63.0458 20.36 63.0458 18.6V11.4H65.5178V17.832C65.5178 19.064 65.7818 20.064 66.3098 20.832C66.8538 21.584 67.7338 21.96 68.9498 21.96C69.6538 21.96 70.2938 21.816 70.8698 21.528C71.4618 21.224 71.9258 20.8 72.2618 20.256C72.6138 19.712 72.7898 19.064 72.7898 18.312ZM93.8109 11.4V24H91.3389V21.936C91.0509 22.32 90.6589 22.688 90.1629 23.04C89.6669 23.392 89.0909 23.68 88.4349 23.904C87.7949 24.128 87.0989 24.24 86.3469 24.24C85.0989 24.24 83.9869 23.96 83.0109 23.4C82.0509 22.84 81.2909 22.064 80.7309 21.072C80.1869 20.08 79.9149 18.944 79.9149 17.664C79.9149 16.384 80.2029 15.256 80.7789 14.28C81.3549 13.304 82.1469 12.536 83.1549 11.976C84.1789 11.416 85.3469 11.136 86.6589 11.136C87.6989 11.136 88.6189 11.336 89.4189 11.736C90.2349 12.136 90.8749 12.6 91.3389 13.128V11.4H93.8109ZM86.9229 21.96C87.8029 21.96 88.5789 21.776 89.2509 21.408C89.9389 21.024 90.4749 20.512 90.8589 19.872C91.2429 19.232 91.4349 18.496 91.4349 17.664C91.4349 16.864 91.2429 16.144 90.8589 15.504C90.4749 14.864 89.9389 14.36 89.2509 13.992C88.5789 13.608 87.8029 13.416 86.9229 13.416C86.0429 13.416 85.2589 13.608 84.5709 13.992C83.8989 14.36 83.3709 14.864 82.9869 15.504C82.6189 16.144 82.4349 16.864 82.4349 17.664C82.4349 18.496 82.6189 19.232 82.9869 19.872C83.3709 20.512 83.8989 21.024 84.5709 21.408C85.2589 21.776 86.0429 21.96 86.9229 21.96Z" fill="white"/>
</svg>
