<svg width="45" height="57" viewBox="0 0 45 57" fill="none" xmlns="http://www.w3.org/2000/svg">
<path d="M11.2446 54.0879C10.9312 54.0879 10.644 54.0308 10.3833 53.9165C10.1255 53.7993 9.90869 53.6206 9.73291 53.3804H9.68018C9.71533 53.6616 9.73291 53.9282 9.73291 54.1802V56.1621H9.00342V49.1836H9.59668L9.69775 49.8428H9.73291C9.92041 49.5791 10.1387 49.3887 10.3877 49.2715C10.6367 49.1543 10.9224 49.0957 11.2446 49.0957C11.8833 49.0957 12.3755 49.314 12.7212 49.7505C13.0698 50.187 13.2441 50.7993 13.2441 51.5874C13.2441 52.3784 13.0669 52.9937 12.7124 53.4331C12.3608 53.8696 11.8716 54.0879 11.2446 54.0879ZM11.1392 49.7153C10.647 49.7153 10.291 49.8516 10.0713 50.124C9.85156 50.3965 9.73877 50.8301 9.73291 51.4248V51.5874C9.73291 52.2642 9.8457 52.749 10.0713 53.042C10.2969 53.332 10.6587 53.4771 11.1567 53.4771C11.5728 53.4771 11.8979 53.3086 12.1323 52.9717C12.3696 52.6348 12.4883 52.1704 12.4883 51.5786C12.4883 50.978 12.3696 50.5181 12.1323 50.1987C11.8979 49.8765 11.5669 49.7153 11.1392 49.7153ZM17.1702 49.0957C17.3841 49.0957 17.576 49.1133 17.7459 49.1484L17.6448 49.8252C17.4456 49.7812 17.2698 49.7593 17.1175 49.7593C16.7278 49.7593 16.3938 49.9175 16.1155 50.2339C15.8401 50.5503 15.7024 50.9443 15.7024 51.416V54H14.9729V49.1836H15.575L15.6585 50.0757H15.6937C15.8724 49.7622 16.0877 49.5205 16.3396 49.3506C16.5916 49.1807 16.8685 49.0957 17.1702 49.0957ZM23.254 51.5874C23.254 52.3726 23.0562 52.9863 22.6607 53.4287C22.2652 53.8682 21.7188 54.0879 21.0216 54.0879C20.5909 54.0879 20.2086 53.9868 19.8746 53.7847C19.5406 53.5825 19.2828 53.2925 19.1012 52.9146C18.9195 52.5366 18.8287 52.0942 18.8287 51.5874C18.8287 50.8022 19.025 50.1914 19.4176 49.7549C19.8102 49.3154 20.3551 49.0957 21.0523 49.0957C21.7262 49.0957 22.2608 49.3198 22.6563 49.7681C23.0548 50.2163 23.254 50.8228 23.254 51.5874ZM19.5846 51.5874C19.5846 52.2026 19.7076 52.6714 19.9537 52.9937C20.1998 53.3159 20.5616 53.4771 21.0392 53.4771C21.5167 53.4771 21.8785 53.3174 22.1246 52.998C22.3736 52.6758 22.4981 52.2056 22.4981 51.5874C22.4981 50.9751 22.3736 50.5107 22.1246 50.1943C21.8785 49.875 21.5138 49.7153 21.0304 49.7153C20.5528 49.7153 20.1925 49.8721 19.9493 50.1855C19.7062 50.499 19.5846 50.9663 19.5846 51.5874ZM27.1581 49.7505H25.932V54H25.2025V49.7505H24.3412V49.4209L25.2025 49.1572V48.8892C25.2025 47.7056 25.7196 47.1138 26.7538 47.1138C27.0087 47.1138 27.3075 47.165 27.6503 47.2676L27.4613 47.8521C27.1801 47.7612 26.9398 47.7158 26.7406 47.7158C26.4652 47.7158 26.2616 47.8081 26.1298 47.9927C25.9979 48.1743 25.932 48.4673 25.932 48.8716V49.1836H27.1581V49.7505ZM28.7665 54H28.037V49.1836H28.7665V54ZM27.9755 47.8784C27.9755 47.7114 28.0165 47.5898 28.0985 47.5137C28.1806 47.4346 28.2831 47.395 28.4062 47.395C28.5233 47.395 28.6244 47.4346 28.7094 47.5137C28.7943 47.5928 28.8368 47.7144 28.8368 47.8784C28.8368 48.0425 28.7943 48.1655 28.7094 48.2476C28.6244 48.3267 28.5233 48.3662 28.4062 48.3662C28.2831 48.3662 28.1806 48.3267 28.0985 48.2476C28.0165 48.1655 27.9755 48.0425 27.9755 47.8784ZM31.4929 54H30.7634V47.1621H31.4929V54ZM35.5244 54.0879C34.8125 54.0879 34.25 53.8711 33.8369 53.4375C33.4268 53.0039 33.2217 52.4019 33.2217 51.6313C33.2217 50.855 33.4121 50.2383 33.793 49.7812C34.1768 49.3242 34.6909 49.0957 35.3354 49.0957C35.939 49.0957 36.4165 49.2949 36.7681 49.6934C37.1196 50.0889 37.2954 50.6118 37.2954 51.2622V51.7236H33.9775C33.9922 52.2891 34.1343 52.7183 34.4038 53.0112C34.6763 53.3042 35.0586 53.4507 35.5508 53.4507C36.0693 53.4507 36.582 53.3423 37.0889 53.1255V53.7759C36.8311 53.8872 36.5864 53.9663 36.355 54.0132C36.1265 54.063 35.8496 54.0879 35.5244 54.0879ZM35.3267 49.7065C34.9399 49.7065 34.6309 49.8325 34.3994 50.0845C34.1709 50.3364 34.0361 50.6851 33.9951 51.1304H36.5132C36.5132 50.6704 36.4106 50.3188 36.2056 50.0757C36.0005 49.8296 35.7075 49.7065 35.3267 49.7065Z" fill="#46C5BD"/>
<path d="M20.3708 0.0524406C19.9508 0.0763723 19.4768 0.124236 19.3208 0.160133C19.1648 0.196031 18.6728 0.279792 18.2288 0.345604C15.9788 0.692612 13.4408 1.59005 11.3288 2.78663C7.48282 4.95842 4.47082 8.06355 2.43082 11.9584C2.14282 12.5089 1.73482 13.4242 1.36882 14.3456C0.996818 15.2789 0.492818 17.1456 0.324818 18.2345C0.270818 18.5815 0.198818 19.0183 0.162818 19.2097C-0.0591825 20.4781 -0.0531825 23.5952 0.174818 25.0251C0.756818 28.6866 1.80082 31.4388 3.70282 34.2986C6.77482 38.9234 11.5628 42.2559 16.9808 43.5362C20.1428 44.29 23.4908 44.3259 26.6888 43.6559C27.8228 43.4225 29.6768 42.8362 30.1268 42.5729C30.2828 42.4832 30.4868 42.3875 30.5768 42.3635C30.6668 42.3456 30.8588 42.2618 31.0088 42.1781C31.1588 42.1003 31.4108 41.9926 31.5788 41.9447C32.3108 41.7234 34.2848 40.5268 35.5988 39.5037C37.6028 37.9482 39.4928 35.8721 40.7588 33.8439C41.2028 33.1319 42.5348 30.4695 42.7388 29.9012C43.4168 27.9567 43.7348 26.7003 43.9748 24.9653C44.1308 23.8644 44.1908 21.3516 44.0948 20.3584C43.9628 19.0063 43.8968 18.5456 43.7588 17.8456C43.5068 16.6012 43.1948 15.4883 42.7448 14.2559C42.5408 13.6935 42.0188 12.5328 41.6768 11.8926C40.6628 9.9721 39.7088 8.63791 38.0708 6.855C36.2528 4.87466 33.4208 2.9003 30.7988 1.78748C27.4328 0.357569 24.2048 -0.180893 20.3708 0.0524406ZM24.1388 1.93107C24.5708 1.98492 25.2308 2.08065 25.6088 2.14646C31.6628 3.2174 36.9188 7.01654 39.8828 12.461C40.2728 13.173 40.7948 14.2798 40.9088 14.6447C40.9388 14.7285 41.0588 15.0636 41.1788 15.3926C42.3068 18.4858 42.6128 22.249 42.0128 25.5935C41.8508 26.4789 41.5748 27.5618 41.3048 28.3695C41.0648 29.0815 40.9988 29.255 40.8428 29.6319C40.8188 29.6977 40.7288 29.9131 40.6448 30.1106C40.2488 31.0798 39.5468 32.3422 38.8028 33.4311C37.1648 35.8422 34.8308 38.0259 32.2928 39.5157C31.2248 40.1439 29.7188 40.8379 28.6088 41.2088C26.4908 41.9148 24.8348 42.202 22.6088 42.2618C20.4548 42.3217 19.0508 42.1661 17.0408 41.6516C11.0828 40.1259 6.12082 35.9259 3.57082 30.2601C2.97682 28.9439 2.47282 27.3225 2.15482 25.7131C1.75282 23.6909 1.74082 20.8012 2.12482 18.5935C3.00682 13.5439 5.80882 8.99688 9.94882 5.88577C12.8588 3.70201 16.1468 2.39774 19.9088 1.93706C20.8748 1.82338 23.1608 1.8174 24.1388 1.93107Z" fill="#46C5BD"/>
<path d="M21.1269 8.45231C20.8569 8.49419 20.5629 8.57197 20.4669 8.61983C20.3769 8.67368 20.0589 8.81129 19.7589 8.93094C18.6189 9.39761 18.4869 9.47539 17.7789 10.1814C17.0349 10.9233 16.6629 11.4856 16.3329 12.3592C16.0509 13.113 15.9489 13.6874 15.9489 14.525C15.9489 16.1104 16.5009 17.5164 17.5629 18.6651C18.4989 19.6643 19.4169 20.1908 20.8689 20.5438C21.4869 20.6993 22.6989 20.6933 23.3589 20.5438C25.6629 20.0053 27.3789 18.354 28.0209 16.0686C28.1409 15.6378 28.1589 15.4344 28.1589 14.525C28.1589 13.6156 28.1409 13.4121 28.0209 12.9814C27.7149 11.8865 27.1809 10.9532 26.4429 10.2173C25.0149 8.78735 23.0829 8.14718 21.1269 8.45231ZM23.2989 10.4087C24.4809 10.7677 25.3689 11.5275 25.9509 12.6882C26.4909 13.7592 26.4909 15.2908 25.9509 16.3617C25.2609 17.7318 24.2349 18.4797 22.6089 18.7968C22.1949 18.8745 22.1049 18.8745 21.4989 18.7728C21.1389 18.707 20.7129 18.6113 20.5629 18.5515C20.0709 18.36 19.4709 17.9711 19.0929 17.6062C18.3969 16.9301 17.9949 16.1344 17.8269 15.1173C17.7369 14.5668 17.7369 14.4771 17.8269 13.9207C17.9949 12.8916 18.3369 12.2335 19.0929 11.4378C19.3509 11.1626 19.6629 10.8993 19.7829 10.8455C19.9029 10.7916 20.0829 10.7079 20.1789 10.654C20.4489 10.5104 20.9289 10.3309 21.1989 10.2711C21.6069 10.1874 22.8309 10.2651 23.2989 10.4087Z" fill="#46C5BD"/>
<path d="M16.2129 20.5439C14.3229 21.6806 12.6849 23.655 11.7249 25.9644C11.0649 27.5499 10.6809 30.0806 10.9389 31.1396C11.3589 32.8627 12.9789 34.1251 15.8049 34.9507C16.2009 35.0644 16.6149 35.1721 16.7289 35.196C16.8429 35.214 17.1129 35.2738 17.3289 35.3157C19.2429 35.7225 22.5789 35.8661 24.6969 35.6268C27.9069 35.2678 29.9949 34.6037 31.6149 33.4191C32.5209 32.761 33.1089 31.8516 33.2589 30.8883C33.3129 30.5054 33.1809 28.6687 33.0489 28.0405C32.8269 26.9695 32.3409 25.6294 31.8369 24.702C30.9609 23.0806 29.4009 21.4234 27.9009 20.52C27.6609 20.3764 27.5169 20.3285 27.2949 20.3285C27.0369 20.3285 26.9409 20.3704 26.4189 20.7234C25.0089 21.6567 23.6829 22.0755 22.0689 22.0815C20.5389 22.0875 19.1049 21.6567 17.8809 20.8191C17.0289 20.2268 16.8009 20.1909 16.2129 20.5439ZM17.2569 22.62C19.3569 23.8345 21.6369 24.2114 24.0129 23.7328C24.5469 23.6251 25.1289 23.4576 25.4589 23.32C25.9329 23.1225 26.5929 22.7994 26.8749 22.6259C27.0609 22.5123 27.2709 22.4225 27.3369 22.4225C27.5949 22.4225 28.7529 23.4994 29.3829 24.3311C29.8449 24.9353 30.0069 25.2046 30.3909 25.9644C30.9729 27.1251 31.3029 28.3516 31.4229 29.7456C31.4889 30.5533 31.4229 30.8823 31.1289 31.3071C29.9289 33.0302 25.5189 34.1131 20.7609 33.8559C17.2329 33.6644 14.6109 32.8926 13.3389 31.6661C12.7269 31.0798 12.6129 30.5712 12.7749 29.2191C12.9849 27.4661 13.6629 25.8029 14.7609 24.337C15.3369 23.5772 16.5789 22.4225 16.8309 22.4225C16.8789 22.4225 17.0709 22.5123 17.2569 22.62Z" fill="#46C5BD"/>
</svg>
