<svg width="316" height="53" viewBox="0 0 316 53" fill="none" xmlns="http://www.w3.org/2000/svg">
<rect x="54" width="262" height="53" rx="10" fill="#DC7352"/>
<rect width="272" height="53" rx="10" fill="#F5EBEC"/>
<path d="M288.356 10.8178L283.907 15.2667L288.404 19.7645L292.902 24.2623V20.1067V15.9512H293.44C297.977 15.9805 302.455 19.7058 303.55 24.3698C305.144 31.1556 300.03 37.8534 293.264 37.8534H291.944L291.719 38.6845C291.602 39.1441 291.426 39.8187 291.328 40.2001C290.937 41.6765 290.868 41.6374 293.44 41.5201C304.283 41.0214 310.786 29.6792 305.77 19.9992C303.648 15.9121 299.121 12.8907 294.467 12.4703L293 12.3334L292.902 9.35117L292.804 6.36895L288.356 10.8178Z" fill="white"/>
<path d="M279.653 20.9867C276.622 27.6649 279.223 35.8293 285.579 39.584C287.466 40.6987 287.466 40.6987 288.043 38.6845L288.532 36.9831L287.368 36.2889C282.841 33.6098 280.729 27.5867 282.724 23.0596L283.085 22.2578L281.775 20.9573C280.201 19.3929 280.377 19.3929 279.653 20.9867Z" fill="white"/>
</svg>
